<svg width="57" height="53" viewBox="0 0 57 53" fill="none" xmlns="http://www.w3.org/2000/svg">
<path d="M31.2525 26.1634H29.2901C29.2901 29.0786 29.2901 32.667 29.2901 32.667H26.3823C26.3823 32.667 26.3823 29.1134 26.3823 26.1634H25V23.8648H26.3823V22.3781C26.3823 21.3133 26.9264 19.6494 29.3168 19.6494L31.4716 19.6571V21.8884C31.4716 21.8884 30.1622 21.8884 29.9077 21.8884C29.6531 21.8884 29.2911 22.0067 29.2911 22.5145V23.8653H31.5066L31.2525 26.1634Z" fill="#430307"/>
<mask id="mask0" mask-type="alpha" maskUnits="userSpaceOnUse" x="25" y="19" width="7" height="14">
<path d="M31.2525 26.1634H29.2901C29.2901 29.0786 29.2901 32.667 29.2901 32.667H26.3823C26.3823 32.667 26.3823 29.1134 26.3823 26.1634H25V23.8648H26.3823V22.3781C26.3823 21.3133 26.9264 19.6494 29.3168 19.6494L31.4716 19.6571V21.8884C31.4716 21.8884 30.1622 21.8884 29.9077 21.8884C29.6531 21.8884 29.2911 22.0067 29.2911 22.5145V23.8653H31.5066L31.2525 26.1634Z" fill="white"/>
</mask>
<g mask="url(#mask0)">
<rect x="16" y="15" width="24" height="20.2987" fill="#430307"/>
</g>
</svg>
