<svg width="25" height="23" viewBox="0 0 25 23" fill="none" xmlns="http://www.w3.org/2000/svg">
<path fill-rule="evenodd" clip-rule="evenodd" d="M20.1722 16.909C20.6722 16.909 21.0775 16.5037 21.0775 16.0038C21.0775 15.5038 20.6722 15.0985 20.1722 15.0985H4.03075C3.53079 15.0985 3.12549 15.5038 3.12549 16.0038C3.12549 16.5037 3.53079 16.909 4.03075 16.909H20.1722ZM20.1722 12.3828C20.6722 12.3828 21.0775 11.9775 21.0775 11.4775C21.0775 10.9776 20.6722 10.5723 20.1722 10.5723H4.03075C3.53079 10.5723 3.12549 10.9776 3.12549 11.4775C3.12549 11.9775 3.53079 12.3828 4.03075 12.3828H20.1722ZM3.12549 6.95116C3.12549 7.45113 3.53079 7.85643 4.03075 7.85643H20.1722C20.6722 7.85643 21.0775 7.45113 21.0775 6.95116C21.0775 6.4512 20.6722 6.0459 20.1722 6.0459H4.03075C3.53079 6.0459 3.12549 6.4512 3.12549 6.95116Z" fill="#B76882"/>
</svg>
