<?xml version="1.0" encoding="UTF-8" standalone="no"?>
<!-- Created with Inkscape (http://www.inkscape.org/) -->

<svg
   xmlns:dc="http://purl.org/dc/elements/1.1/"
   xmlns:cc="http://creativecommons.org/ns#"
   xmlns:rdf="http://www.w3.org/1999/02/22-rdf-syntax-ns#"
   xmlns:svg="http://www.w3.org/2000/svg"
   xmlns="http://www.w3.org/2000/svg"
   xmlns:sodipodi="http://sodipodi.sourceforge.net/DTD/sodipodi-0.dtd"
   xmlns:inkscape="http://www.inkscape.org/namespaces/inkscape"
   version="1.1"
   id="svg3767"
   xml:space="preserve"
   width="805.95441"
   height="416.17813"
   viewBox="0 0 805.95439 416.17813"
   sodipodi:docname="logo.svg"
   inkscape:version="0.92.4 (f8dce91, 2019-08-02)"><metadata
     id="metadata3773"><rdf:RDF><cc:Work
         rdf:about=""><dc:format>image/svg+xml</dc:format><dc:type
           rdf:resource="http://purl.org/dc/dcmitype/StillImage" /><dc:title></dc:title></cc:Work></rdf:RDF></metadata><defs
     id="defs3771"><clipPath
       clipPathUnits="userSpaceOnUse"
       id="clipPath3783"><path
         d="M 0,595.276 H 841.89 V 0 H 0 Z"
         id="path3781"
         inkscape:connector-curvature="0" /></clipPath></defs><sodipodi:namedview
     pagecolor="#ffffff"
     bordercolor="#666666"
     borderopacity="1"
     objecttolerance="10"
     gridtolerance="10"
     guidetolerance="10"
     inkscape:pageopacity="0"
     inkscape:pageshadow="2"
     inkscape:window-width="1853"
     inkscape:window-height="1025"
     id="namedview3769"
     showgrid="false"
     fit-margin-top="0"
     fit-margin-left="0"
     fit-margin-right="0"
     fit-margin-bottom="0"
     inkscape:zoom="0.53168613"
     inkscape:cx="499.17669"
     inkscape:cy="187.7368"
     inkscape:window-x="67"
     inkscape:window-y="27"
     inkscape:window-maximized="1"
     inkscape:current-layer="g3775" /><g
     id="g3775"
     inkscape:groupmode="layer"
     inkscape:label="LOGO.BONITAS.E.VALENTES"
     transform="matrix(1.3333333,0,0,-1.3333333,-144.08106,569.87332)"><g
       id="g3777"><g
         id="g3779"
         clip-path="url(#clipPath3783)"><g
           id="g3785"
           transform="translate(385.2876,329.7444)"><path
             d="m 0,0 c -0.402,-3.914 0.27,-7.925 2.025,-12.038 1.752,-4.114 3.909,-7.519 6.474,-10.215 1.886,1.078 3.875,2.357 5.966,3.844 2.091,1.481 3.875,2.965 5.364,4.45 4.178,4.315 6.269,9.372 6.269,15.172 0,3.505 -1.212,6.303 -3.642,8.396 -2.427,2.09 -5.229,3.201 -8.393,3.338 C 10.892,13.08 7.893,12.138 5.058,10.115 2.226,8.092 0.54,4.718 0,0 m 0.609,-53.609 c -3.641,-2.024 -6.812,-4.184 -9.509,-6.475 -0.54,-0.403 -1.248,-1.08 -2.124,-2.022 -0.879,-0.947 -1.719,-2.16 -2.528,-3.642 -0.81,-1.486 -1.452,-3.271 -1.924,-5.361 -0.474,-2.093 -0.503,-4.486 -0.098,-7.182 0.402,-3.776 2.189,-7.014 5.36,-9.71 3.168,-2.7 6.977,-4.182 11.429,-4.45 3.237,-0.137 6.17,0.201 8.801,1.011 2.628,0.808 4.989,1.821 7.08,3.034 2.091,1.214 3.944,2.494 5.564,3.844 1.617,1.347 3.033,2.629 4.248,3.844 z m 62.106,-64.332 -19.015,19.42 c -4.586,-3.914 -8.972,-7.081 -13.151,-9.507 -4.181,-2.429 -8.06,-4.35 -11.632,-5.766 -3.577,-1.416 -6.777,-2.359 -9.608,-2.834 -2.832,-0.471 -5.127,-0.773 -6.879,-0.91 -5.802,-0.269 -11.264,0.405 -16.388,2.023 -5.126,1.619 -9.709,4.047 -13.756,7.284 -4.047,3.237 -7.382,7.112 -10.013,11.632 -2.631,4.517 -4.284,9.539 -4.956,15.072 -0.944,8.09 0.168,15.172 3.336,21.24 3.167,6.07 7.79,11.664 13.859,16.793 1.481,1.213 3.404,2.66 5.765,4.348 2.358,1.685 4.349,3.067 5.97,4.147 -4.726,5.665 -8.13,11.598 -10.217,17.803 -2.094,6.202 -2.664,12.542 -1.719,19.017 0.671,5.663 2.456,10.788 5.36,15.375 2.898,4.583 6.641,8.426 11.228,11.531 4.719,3.1 9.944,5.158 15.677,6.17 5.732,1.011 11.362,0.774 16.894,-0.709 5.529,-1.485 10.517,-4.115 14.969,-7.89 4.451,-3.777 7.819,-8.228 10.114,-13.351 2.427,-5.127 3.573,-10.489 3.442,-16.083 -0.139,-5.598 -1.489,-11.026 -4.047,-16.286 -2.16,-4.316 -5.229,-8.126 -9.206,-11.429 -3.978,-3.307 -8.466,-6.442 -13.454,-9.407 l 17.803,-18.409 c 4.857,6.877 8.462,12.407 10.823,16.589 2.358,4.178 3.54,6.336 3.54,6.473 l 24.48,-11.936 c -0.138,-0.272 -1.587,-2.902 -4.35,-7.89 -2.765,-4.991 -6.98,-11.465 -12.643,-19.421 -0.54,-0.676 -1.011,-1.283 -1.416,-1.821 -0.404,-0.54 -0.81,-1.147 -1.215,-1.82 l 21.647,-23.063 z"
             style="fill:#f29ac0;fill-opacity:1;fill-rule:nonzero;stroke:none"
             id="path3787"
             inkscape:connector-curvature="0" /></g><g
           id="g3789"
           transform="translate(385.2876,329.7444)"><path
             d="m 0,0 c -0.402,-3.914 0.27,-7.925 2.025,-12.038 1.752,-4.114 3.909,-7.519 6.474,-10.215 1.886,1.078 3.875,2.357 5.966,3.844 2.091,1.481 3.875,2.965 5.364,4.45 4.178,4.315 6.269,9.372 6.269,15.172 0,3.505 -1.212,6.303 -3.642,8.396 -2.427,2.09 -5.229,3.201 -8.393,3.338 C 10.892,13.08 7.893,12.138 5.058,10.115 2.226,8.092 0.54,4.718 0,0 Z m 0.609,-53.609 c -3.641,-2.024 -6.812,-4.184 -9.509,-6.475 -0.54,-0.403 -1.248,-1.08 -2.124,-2.022 -0.879,-0.947 -1.719,-2.16 -2.528,-3.642 -0.81,-1.486 -1.452,-3.271 -1.924,-5.361 -0.474,-2.093 -0.503,-4.486 -0.098,-7.182 0.402,-3.776 2.189,-7.014 5.36,-9.71 3.168,-2.7 6.977,-4.182 11.429,-4.45 3.237,-0.137 6.17,0.201 8.801,1.011 2.628,0.808 4.989,1.821 7.08,3.034 2.091,1.214 3.944,2.494 5.564,3.844 1.617,1.347 3.033,2.629 4.248,3.844 z m 62.106,-64.332 -19.015,19.42 c -4.586,-3.914 -8.972,-7.081 -13.151,-9.507 -4.181,-2.429 -8.06,-4.35 -11.632,-5.766 -3.577,-1.416 -6.777,-2.359 -9.608,-2.834 -2.832,-0.471 -5.127,-0.773 -6.879,-0.91 -5.802,-0.269 -11.264,0.405 -16.388,2.023 -5.126,1.619 -9.709,4.047 -13.756,7.284 -4.047,3.237 -7.382,7.112 -10.013,11.632 -2.631,4.517 -4.284,9.539 -4.956,15.072 -0.944,8.09 0.168,15.172 3.336,21.24 3.167,6.07 7.79,11.664 13.859,16.793 1.481,1.213 3.404,2.66 5.765,4.348 2.358,1.685 4.349,3.067 5.97,4.147 -4.726,5.665 -8.13,11.598 -10.217,17.803 -2.094,6.202 -2.664,12.542 -1.719,19.017 0.671,5.663 2.456,10.788 5.36,15.375 2.898,4.583 6.641,8.426 11.228,11.531 4.719,3.1 9.944,5.158 15.677,6.17 5.732,1.011 11.362,0.774 16.894,-0.709 5.529,-1.485 10.517,-4.115 14.969,-7.89 4.451,-3.777 7.819,-8.228 10.114,-13.351 2.427,-5.127 3.573,-10.489 3.442,-16.083 -0.139,-5.598 -1.489,-11.026 -4.047,-16.286 -2.16,-4.316 -5.229,-8.126 -9.206,-11.429 -3.978,-3.307 -8.466,-6.442 -13.454,-9.407 l 17.803,-18.409 c 4.857,6.877 8.462,12.407 10.823,16.589 2.358,4.178 3.54,6.336 3.54,6.473 l 24.48,-11.936 c -0.138,-0.272 -1.587,-2.902 -4.35,-7.89 -2.765,-4.991 -6.98,-11.465 -12.643,-19.421 -0.54,-0.676 -1.011,-1.283 -1.416,-1.821 -0.404,-0.54 -0.81,-1.147 -1.215,-1.82 l 21.647,-23.063 z"
             style="fill:none;stroke:#f29ac0;stroke-width:1;stroke-linecap:butt;stroke-linejoin:miter;stroke-miterlimit:10;stroke-dasharray:none;stroke-opacity:1"
             id="path3791"
             inkscape:connector-curvature="0" /></g><g
           id="g3793"
           transform="translate(184.8149,403.0403)"><path
             d="m 0,0 c -0.633,0.295 -1.564,0.445 -2.791,0.445 h -16.687 c -1.27,0 -2.252,-0.234 -2.949,-0.698 -0.699,-0.466 -1.323,-1.375 -1.872,-2.728 l -13.452,-43.081 c -0.297,0.761 -0.75,2.041 -1.364,3.838 -0.613,1.797 -1.312,3.913 -2.093,6.345 -0.783,2.432 -1.64,5.097 -2.569,7.995 -0.931,2.896 -1.872,5.815 -2.824,8.755 -0.951,2.94 -1.863,5.805 -2.728,8.597 -0.868,2.793 -1.662,5.309 -2.379,7.551 -0.341,1.099 -0.92,1.944 -1.746,2.538 -0.825,0.591 -1.788,0.888 -2.888,0.888 h -16.242 c -1.987,0 -3.247,-0.614 -3.775,-1.84 -0.529,-1.227 -0.37,-2.708 0.478,-4.441 l 29.247,-71.569 c 0.339,-0.846 0.857,-1.513 1.556,-1.999 0.697,-0.486 1.892,-0.729 3.585,-0.729 h 7.55 c 1.268,0 2.219,0.263 2.855,0.793 0.634,0.527 1.183,1.174 1.648,1.935 L 0.761,-5.012 c 0.297,0.719 0.51,1.407 0.635,2.062 0.126,0.656 0.084,1.238 -0.125,1.745 C 1.058,-0.697 0.635,-0.295 0,0"
             style="fill:#430307;fill-opacity:1;fill-rule:nonzero;stroke:none"
             id="path3795"
             inkscape:connector-curvature="0" /></g><g
           id="g3797"
           transform="translate(248.8335,355.2966)"><path
             d="m 0,0 c -1.016,-2.433 -2.423,-4.536 -4.22,-6.313 -1.799,-1.776 -3.912,-3.184 -6.344,-4.219 -2.432,-1.037 -5.065,-1.555 -7.9,-1.555 -2.751,0 -5.256,0.518 -7.517,1.555 -2.264,1.035 -4.201,2.443 -5.807,4.219 -1.608,1.777 -2.846,3.88 -3.711,6.313 -0.867,2.432 -1.301,5.044 -1.301,7.836 0,2.706 0.434,5.287 1.301,7.741 0.865,2.452 2.103,4.609 3.711,6.471 1.606,1.861 3.543,3.331 5.807,4.41 2.261,1.078 4.766,1.618 7.517,1.618 2.835,0 5.468,-0.54 7.9,-1.618 2.432,-1.079 4.545,-2.549 6.344,-4.41 C -2.423,20.186 -1.016,18.029 0,15.577 1.016,13.123 1.522,10.542 1.522,7.836 1.522,5.044 1.016,2.432 0,0 m 24.045,47.427 c -0.465,0.465 -1.014,0.761 -1.649,0.889 -0.635,0.126 -1.184,0.19 -1.648,0.19 h -9.456 c -0.845,0 -1.5,-0.054 -1.965,-0.159 C 8.86,48.241 8.469,48.03 8.152,47.713 7.835,47.396 7.539,46.909 7.265,46.253 6.988,45.597 6.639,44.741 6.218,43.683 L 4.377,37.91 c -1.142,1.65 -2.474,3.182 -3.997,4.6 -1.522,1.417 -3.226,2.633 -5.107,3.648 -1.883,1.015 -3.957,1.818 -6.218,2.411 -2.263,0.592 -4.707,0.889 -7.329,0.889 -5.751,0 -11.146,-1.069 -16.178,-3.205 -5.034,-2.136 -9.412,-5.076 -13.133,-8.819 -3.723,-3.743 -6.664,-8.143 -8.821,-13.196 -2.156,-5.056 -3.236,-10.524 -3.236,-16.402 0,-3.893 0.488,-7.625 1.461,-11.198 0.972,-3.575 2.357,-6.907 4.156,-9.994 1.797,-3.088 3.943,-5.891 6.44,-8.406 2.493,-2.518 5.275,-4.675 8.342,-6.472 3.067,-1.798 6.367,-3.183 9.898,-4.156 3.532,-0.972 7.223,-1.459 11.071,-1.459 2.158,0 4.24,0.265 6.249,0.793 2.009,0.529 3.893,1.226 5.648,2.094 1.754,0.866 3.363,1.85 4.821,2.95 1.461,1.099 2.762,2.221 3.904,3.363 l 0.823,-2.856 c 0.254,-0.719 0.498,-1.385 0.73,-1.998 0.233,-0.613 0.518,-1.132 0.857,-1.555 0.338,-0.422 0.783,-0.751 1.332,-0.983 0.549,-0.232 1.27,-0.349 2.157,-0.349 h 12.501 c 0.464,0 1.013,0.063 1.648,0.191 0.635,0.127 1.184,0.422 1.649,0.888 0.593,0.381 1.016,0.898 1.27,1.555 0.255,0.654 0.381,1.341 0.381,2.061 v 71.506 c 0,0.761 -0.126,1.437 -0.381,2.03 -0.254,0.592 -0.677,1.12 -1.27,1.586"
             style="fill:#430307;fill-opacity:1;fill-rule:nonzero;stroke:none"
             id="path3799"
             inkscape:connector-curvature="0" /></g><g
           id="g3801"
           transform="translate(312.4399,426.072)"><path
             d="m 0,0 c -0.402,0.423 -0.836,0.751 -1.301,0.983 -0.465,0.233 -0.909,0.35 -1.332,0.35 h -15.546 c -1.648,0 -2.812,-0.467 -3.489,-1.396 -0.677,-0.931 -1.014,-2.074 -1.014,-3.427 v -94.79 c 0,-1.608 0.337,-2.823 1.014,-3.648 0.677,-0.824 1.841,-1.237 3.489,-1.237 h 14.721 c 1.438,0 2.611,0.413 3.522,1.237 0.908,0.825 1.364,2.04 1.364,3.648 v 94.79 c 0,0.719 -0.137,1.374 -0.412,1.968 C 0.739,-0.931 0.401,-0.423 0,0"
             style="fill:#430307;fill-opacity:1;fill-rule:nonzero;stroke:none"
             id="path3803"
             inkscape:connector-curvature="0" /></g><g
           id="g3805"
           transform="translate(389.4746,333.9118)"><path
             d="m 0,0 c -1.402,-0.781 -2.495,-1.746 -3.271,-2.899 -0.782,-1.154 -1.311,-2.4 -1.591,-3.74 -0.198,-0.944 -0.3,-1.813 -0.358,-2.649 4.563,1.917 8.682,4.555 12.347,7.927 0.634,0.465 1.185,1.005 1.649,1.618 C 8.891,0.408 8.948,0.588 9.034,0.752 7.979,0.999 6.829,1.167 5.469,1.167 3.225,1.167 1.402,0.778 0,0"
             style="fill:#430307;fill-opacity:1;fill-rule:nonzero;stroke:none"
             id="path3807"
             inkscape:connector-curvature="0" /></g><g
           id="g3809"
           transform="translate(353.2988,378.0427)"><path
             d="m 0,0 c 1.078,1.396 2.294,2.643 3.649,3.743 1.352,1.1 2.801,1.977 4.346,2.633 1.542,0.655 3.14,0.984 4.789,0.984 2.285,0 4.284,-0.297 5.996,-0.888 C 20.493,5.878 22.016,5.054 23.348,3.998 24.68,2.94 25.864,1.713 26.902,0.317 27.937,-1.079 28.9,-2.601 29.79,-4.251 H -2.633 C -1.957,-2.813 -1.078,-1.396 0,0 m 3.269,-36.885 c 0.474,0.987 0.999,1.933 1.54,2.864 -0.386,0.209 -0.786,0.376 -1.16,0.616 -1.693,1.078 -3.185,2.527 -4.475,4.345 -1.29,1.82 -2.146,4.082 -2.569,6.789 h 18.648 c 2.903,2.183 6.095,3.988 9.591,5.394 4.807,1.932 9.799,2.899 14.978,2.899 4.302,0 8.463,-0.501 12.505,-1.446 0.032,1.156 0.049,2.505 0.049,4.067 0,3.383 -0.476,6.671 -1.427,9.866 -0.951,3.193 -2.295,6.196 -4.03,9.009 -1.734,2.813 -3.806,5.403 -6.218,7.773 -2.409,2.368 -5.065,4.398 -7.962,6.091 -2.899,1.691 -5.997,3.003 -9.296,3.933 -3.299,0.931 -6.705,1.396 -10.214,1.396 -3.849,0 -7.509,-0.507 -10.977,-1.522 -3.469,-1.016 -6.685,-2.433 -9.643,-4.252 -2.961,-1.819 -5.639,-4.007 -8.026,-6.566 -2.39,-2.56 -4.421,-5.361 -6.092,-8.407 -1.671,-3.045 -2.961,-6.313 -3.87,-9.802 -0.91,-3.49 -1.364,-7.097 -1.364,-10.819 0,-5.964 1.142,-11.484 3.426,-16.559 2.283,-5.076 5.37,-9.485 9.263,-13.229 3.892,-3.743 8.418,-6.673 13.578,-8.788 0.164,-0.067 0.333,-0.111 0.497,-0.175 -0.021,0.522 -0.075,1.032 -0.075,1.563 0,5.36 1.106,10.346 3.323,14.96"
             style="fill:#430307;fill-opacity:1;fill-rule:nonzero;stroke:none"
             id="path3811"
             inkscape:connector-curvature="0" /></g><g
           id="g3813"
           transform="translate(384.04,324.5246)"><path
             d="m 0,0 c 0.073,0.03 0.141,0.069 0.214,0.1 0.058,0.835 0.161,1.704 0.359,2.648 0.28,1.34 0.808,2.586 1.591,3.74 0.776,1.153 1.868,2.118 3.271,2.899 1.402,0.778 3.225,1.168 5.468,1.168 1.36,0 2.511,-0.169 3.566,-0.415 0.264,0.505 0.441,1.055 0.441,1.693 0,0.465 -0.064,0.919 -0.192,1.364 -0.127,0.444 -0.423,0.941 -0.888,1.491 L 7.105,22.302 C 6.386,23.021 5.74,23.571 5.169,23.952 4.598,24.333 4.038,24.523 3.489,24.523 2.938,24.523 2.42,24.385 1.934,24.11 1.447,23.834 0.865,23.422 0.19,22.873 c -0.761,-0.761 -1.768,-1.491 -3.014,-2.189 -1.248,-0.698 -2.624,-1.311 -4.125,-1.84 -1.502,-0.53 -3.055,-0.952 -4.662,-1.268 -1.609,-0.318 -3.173,-0.477 -4.696,-0.477 -1.693,0 -3.489,0.232 -5.393,0.698 -1.481,0.362 -2.88,0.967 -4.233,1.7 -0.541,-0.931 -1.065,-1.877 -1.539,-2.864 -2.217,-4.614 -3.323,-9.6 -3.323,-14.96 0,-0.531 0.053,-1.041 0.075,-1.563 5.017,-1.983 10.324,-2.997 15.936,-2.997 5.202,0 10.13,0.963 14.784,2.887"
             style="fill:#430307;fill-opacity:1;fill-rule:nonzero;stroke:none"
             id="path3815"
             inkscape:connector-curvature="0" /></g><g
           id="g3817"
           transform="translate(378.1426,361.1657)"><path
             d="m 0,0 c -3.496,-1.406 -6.687,-3.211 -9.59,-5.394 h 27.034 c 2.664,0 4.684,0.16 6.059,0.477 1.374,0.317 2.356,0.888 2.95,1.713 0.592,0.825 0.92,1.935 0.984,3.33 0.018,0.406 0.033,0.854 0.046,1.327 C 23.441,2.398 19.28,2.899 14.978,2.899 9.799,2.899 4.807,1.932 0,0"
             style="fill:#430307;fill-opacity:1;fill-rule:nonzero;stroke:none"
             id="path3819"
             inkscape:connector-curvature="0" /></g><g
           id="g3821"
           transform="translate(429.6279,343.4489)"><path
             d="m 0,0 c 2.185,-4.895 3.277,-10.894 3.277,-18 0,-1.026 -0.224,-1.868 -0.656,-2.542 h 6.161 c 0.635,0 1.196,0.063 1.682,0.19 0.484,0.127 1.005,0.359 1.554,0.698 0.548,0.381 0.961,0.93 1.236,1.65 0.274,0.718 0.414,1.437 0.414,2.156 v 41.242 c 0.126,1.903 0.645,3.668 1.554,5.297 0.909,1.629 2.031,3.046 3.363,4.251 1.332,1.206 2.791,2.147 4.377,2.824 1.587,0.676 3.141,1.016 4.665,1.016 1.774,0 3.52,-0.361 5.233,-1.079 1.713,-0.721 3.246,-1.704 4.601,-2.951 1.352,-1.248 2.443,-2.687 3.267,-4.314 0.825,-1.628 1.236,-3.353 1.236,-5.171 v -41.305 c 0,-1.775 0.339,-2.972 1.015,-3.585 0.678,-0.613 1.926,-0.919 3.745,-0.919 H 61.38 c 1.522,0 2.633,0.413 3.33,1.237 0.699,0.826 1.047,2.04 1.047,3.648 v 41.559 c 0,4.864 -0.689,9.439 -2.061,13.725 -1.376,4.286 -3.385,8.032 -6.027,11.238 -2.645,3.206 -5.859,5.737 -9.644,7.593 -3.786,1.856 -8.09,2.783 -12.912,2.783 -3.385,0 -6.451,-0.369 -9.201,-1.106 -2.749,-0.739 -5.17,-1.677 -7.265,-2.816 -2.093,-1.14 -3.848,-2.404 -5.264,-3.797 -1.419,-1.391 -2.444,-2.741 -3.078,-4.048 L 8.973,55.042 C 8.76,55.673 8.539,56.284 8.307,56.875 8.074,57.466 7.767,57.994 7.386,58.458 7.005,58.922 6.54,59.292 5.989,59.567 5.44,59.841 4.786,59.98 4.024,59.98 h -9.582 c -0.55,0 -1.132,-0.064 -1.743,-0.19 -0.615,-0.128 -1.197,-0.424 -1.746,-0.889 l 0.38,0.189 c -0.634,-0.379 -1.13,-0.907 -1.491,-1.582 -0.358,-0.675 -0.538,-1.413 -0.538,-2.214 V 13.332 c 0.64,-0.459 1.288,-0.906 1.898,-1.412 C -5.117,8.867 -2.182,4.892 0,0"
             style="fill:#430307;fill-opacity:1;fill-rule:nonzero;stroke:none"
             id="path3823"
             inkscape:connector-curvature="0" /></g><g
           id="g3825"
           transform="translate(420.1362,324.239)"><path
             d="m 0,0 c 0.803,-0.889 2.116,-1.332 3.934,-1.332 h 8.179 c 0.431,0.674 0.656,1.516 0.656,2.542 0,7.106 -1.093,13.105 -3.277,18 -2.182,4.892 -5.117,8.867 -8.799,11.92 -0.609,0.506 -1.257,0.953 -1.897,1.412 V 3.553 C -1.204,2.072 -0.803,0.889 0,0"
             style="fill:#430307;fill-opacity:1;fill-rule:nonzero;stroke:none"
             id="path3827"
             inkscape:connector-curvature="0" /></g><g
           id="g3829"
           transform="translate(548.6152,403.5481)"><path
             d="m 0,0 h -8.692 l 0.064,17.449 c 0,1.48 -0.266,2.674 -0.794,3.585 -0.529,0.908 -1.576,1.364 -3.141,1.364 h -0.54 c -0.19,0 -0.391,-0.023 -0.601,-0.065 l -14.403,-5.012 c -1.607,-0.592 -2.844,-1.216 -3.711,-1.872 -0.869,-0.656 -1.302,-1.638 -1.302,-2.949 L -33.182,0 h -6.537 c -3.257,0 -4.884,-1.607 -4.884,-4.822 v -12.244 c 0,-3.427 1.627,-5.14 4.884,-5.14 h 6.537 l 0.062,-53.55 c 0,-3.258 1.629,-4.885 4.887,-4.885 h 14.338 c 1.649,0 2.939,0.412 3.871,1.237 0.929,0.825 1.396,2.04 1.396,3.648 l -0.064,53.55 H 0 c 1.354,0 2.454,0.413 3.3,1.237 0.845,0.825 1.269,2.126 1.269,3.903 v 12.244 c 0,1.607 -0.424,2.813 -1.269,3.617 C 2.454,-0.402 1.354,0 0,0"
             style="fill:#430307;fill-opacity:1;fill-rule:nonzero;stroke:none"
             id="path3831"
             inkscape:connector-curvature="0" /></g><g
           id="g3833"
           transform="translate(584.2734,373.7917)"><path
             d="m 0,0 c 0.678,1.437 1.556,2.854 2.634,4.251 1.077,1.396 2.295,2.643 3.648,3.743 1.353,1.1 2.802,1.977 4.347,2.633 1.542,0.655 3.14,0.984 4.788,0.984 2.286,0 4.284,-0.297 5.997,-0.888 1.713,-0.594 3.235,-1.418 4.567,-2.474 C 27.313,7.191 28.497,5.964 29.535,4.568 30.571,3.172 31.533,1.65 32.423,0 Z m 49.553,11.769 c -1.735,2.813 -3.806,5.403 -6.218,7.773 -2.41,2.368 -5.065,4.398 -7.962,6.091 -2.899,1.691 -5.997,3.003 -9.297,3.933 -3.299,0.931 -6.704,1.396 -10.214,1.396 -3.848,0 -7.508,-0.507 -10.976,-1.522 -3.47,-1.016 -6.685,-2.433 -9.644,-4.252 -2.961,-1.819 -5.638,-4.007 -8.025,-6.566 -2.391,-2.56 -4.422,-5.361 -6.093,-8.407 -1.67,-3.045 -2.961,-6.313 -3.87,-9.802 -0.909,-3.49 -1.363,-7.097 -1.363,-10.819 0,-5.964 1.142,-11.484 3.425,-16.559 2.285,-5.076 5.371,-9.485 9.263,-13.229 3.893,-3.744 8.418,-6.673 13.579,-8.788 5.16,-2.114 10.637,-3.172 16.433,-3.172 5.202,0 10.13,0.963 14.784,2.887 4.651,1.924 8.838,4.6 12.563,8.026 0.632,0.466 1.183,1.005 1.648,1.618 0.465,0.612 0.699,1.343 0.699,2.189 0,0.465 -0.064,0.919 -0.192,1.364 -0.126,0.444 -0.423,0.941 -0.888,1.491 l -6.725,7.614 c -0.719,0.718 -1.365,1.269 -1.936,1.65 -0.571,0.38 -1.131,0.571 -1.68,0.571 -0.551,0 -1.068,-0.138 -1.555,-0.413 -0.487,-0.276 -1.069,-0.688 -1.744,-1.237 -0.761,-0.761 -1.768,-1.491 -3.014,-2.189 -1.248,-0.698 -2.624,-1.312 -4.124,-1.84 -1.503,-0.53 -3.057,-0.952 -4.663,-1.268 -1.609,-0.318 -3.173,-0.477 -4.696,-0.477 -1.693,0 -3.49,0.232 -5.393,0.698 -1.903,0.465 -3.702,1.237 -5.393,2.316 -1.692,1.078 -3.183,2.527 -4.474,4.345 -1.29,1.82 -2.147,4.082 -2.569,6.789 h 45.683 c 2.664,0 4.684,0.16 6.058,0.477 1.374,0.317 2.357,0.888 2.95,1.713 0.593,0.825 0.921,1.935 0.985,3.33 0.062,1.397 0.095,3.194 0.095,5.394 0,3.383 -0.476,6.671 -1.427,9.866 -0.952,3.193 -2.295,6.196 -4.03,9.009"
             style="fill:#430307;fill-opacity:1;fill-rule:nonzero;stroke:none"
             id="path3835"
             inkscape:connector-curvature="0" /></g><g
           id="g3837"
           transform="translate(710.502,358.3737)"><path
             d="m 0,0 c -1.292,2.918 -3.1,5.425 -5.426,7.519 -2.325,2.094 -5.076,3.859 -8.247,5.298 -3.173,1.437 -6.663,2.769 -10.469,3.996 -1.015,0.296 -2.127,0.561 -3.331,0.793 -1.206,0.233 -2.347,0.54 -3.427,0.921 -1.078,0.381 -1.988,0.877 -2.729,1.491 -0.738,0.612 -1.152,1.469 -1.236,2.57 -0.084,1.479 0.486,2.579 1.713,3.299 1.227,0.718 2.876,1.078 4.95,1.078 1.648,0 3.425,-0.286 5.328,-0.857 1.903,-0.57 3.596,-1.68 5.076,-3.33 0.339,-0.424 0.72,-0.783 1.142,-1.079 0.423,-0.296 0.868,-0.508 1.333,-0.634 0.464,-0.127 0.951,-0.138 1.46,-0.032 0.507,0.105 1.013,0.37 1.522,0.794 1.607,1.606 3.16,3.066 4.662,4.377 1.501,1.311 3.078,2.643 4.728,3.997 0.973,0.845 1.449,1.639 1.427,2.379 -0.02,0.74 -0.392,1.533 -1.109,2.38 -1.989,2.071 -3.987,3.859 -5.997,5.361 -2.009,1.501 -4.071,2.728 -6.184,3.679 -2.117,0.953 -4.338,1.65 -6.664,2.095 -2.326,0.444 -4.822,0.666 -7.486,0.666 -4.399,0 -8.397,-0.561 -11.991,-1.681 -3.597,-1.122 -6.686,-2.708 -9.264,-4.759 -2.582,-2.052 -4.569,-4.516 -5.966,-7.391 -1.393,-2.877 -2.092,-6.07 -2.092,-9.581 0,-3.004 0.38,-5.859 1.141,-8.566 0.761,-2.707 2.105,-5.234 4.03,-7.581 1.925,-2.348 4.536,-4.473 7.835,-6.377 3.3,-1.904 7.487,-3.533 12.563,-4.886 1.606,-0.506 3.056,-0.951 4.346,-1.332 1.29,-0.38 2.379,-0.814 3.268,-1.3 0.888,-0.487 1.565,-1.078 2.03,-1.777 0.464,-0.698 0.699,-1.64 0.699,-2.823 0,-1.311 -0.414,-2.327 -1.237,-3.045 -0.826,-0.721 -1.81,-1.239 -2.952,-1.555 -1.142,-0.317 -2.337,-0.508 -3.585,-0.571 -1.248,-0.064 -2.272,-0.095 -3.076,-0.095 -0.339,0 -0.973,0.104 -1.903,0.316 -0.932,0.212 -2.011,0.56 -3.237,1.047 -1.226,0.486 -2.505,1.121 -3.837,1.904 -1.332,0.783 -2.572,1.745 -3.713,2.887 -1.227,1.184 -2.231,1.903 -3.015,2.157 -0.783,0.254 -1.679,-0.043 -2.695,-0.888 l -8.185,-8.185 c -0.507,-0.381 -0.879,-0.836 -1.111,-1.365 -0.233,-0.528 -0.359,-1.109 -0.381,-1.743 -0.02,-0.635 0.084,-1.28 0.319,-1.935 0.233,-0.657 0.579,-1.281 1.046,-1.873 1.778,-2.326 3.807,-4.305 6.09,-5.932 2.286,-1.629 4.696,-2.961 7.234,-3.997 2.539,-1.038 5.161,-1.787 7.867,-2.252 2.707,-0.465 5.373,-0.699 7.995,-0.699 4.609,0 8.914,0.594 12.912,1.777 3.997,1.184 7.456,2.897 10.374,5.14 2.917,2.24 5.212,5.012 6.883,8.311 1.67,3.3 2.507,7.043 2.507,11.231 C 1.935,-6.472 1.288,-2.919 0,0"
             style="fill:#430307;fill-opacity:1;fill-rule:nonzero;stroke:none"
             id="path3839"
             inkscape:connector-curvature="0" /></g><g
           id="g3841"
           transform="translate(209.9868,220.3752)"><path
             d="m 0,0 c 0,2.707 -0.434,5.287 -1.299,7.741 -0.868,2.453 -2.104,4.61 -3.713,6.472 -1.607,1.86 -3.532,3.331 -5.774,4.41 -2.241,1.077 -4.757,1.617 -7.55,1.617 -2.79,0 -5.404,-0.54 -7.836,-1.617 -2.432,-1.079 -4.536,-2.55 -6.313,-4.41 -1.775,-1.862 -3.182,-4.019 -4.218,-6.472 C -37.741,5.287 -38.258,2.707 -38.258,0 v -0.888 c 0.128,-2.665 0.73,-5.161 1.807,-7.486 1.08,-2.327 2.508,-4.346 4.284,-6.06 1.777,-1.712 3.849,-3.056 6.219,-4.029 2.367,-0.974 4.906,-1.459 7.612,-1.459 2.793,0 5.309,0.518 7.55,1.555 2.242,1.035 4.167,2.442 5.774,4.219 1.609,1.776 2.845,3.879 3.713,6.313 C -0.434,-5.403 0,-2.791 0,0 m -38.258,-35.34 c -0.381,-0.804 -0.698,-1.513 -0.952,-2.126 -0.254,-0.612 -0.54,-1.121 -0.856,-1.522 -0.317,-0.403 -0.708,-0.708 -1.173,-0.919 -0.467,-0.213 -1.102,-0.318 -1.906,-0.318 h -12.562 c -3.383,0 -5.074,1.627 -5.074,4.885 v 94.79 c 0,0.72 0.135,1.374 0.411,1.968 0.275,0.592 0.636,1.1 1.078,1.522 0.445,0.422 0.954,0.751 1.525,0.984 0.571,0.232 1.131,0.349 1.68,0.349 h 14.403 c 1.607,0 2.877,-0.466 3.806,-1.396 0.93,-0.931 1.397,-2.073 1.397,-3.427 V 33.057 c 1.184,1.268 2.451,2.431 3.806,3.489 1.354,1.057 2.823,1.956 4.41,2.696 1.587,0.74 3.33,1.322 5.233,1.745 1.906,0.423 4.019,0.635 6.347,0.635 5.751,0 11.049,-1.068 15.893,-3.204 4.841,-2.137 9.008,-5.076 12.498,-8.819 3.49,-3.744 6.218,-8.144 8.186,-13.197 C 21.859,11.347 22.841,5.879 22.841,0 c 0,-5.837 -0.982,-11.293 -2.949,-16.369 -1.968,-5.075 -4.696,-9.485 -8.186,-13.229 -3.49,-3.743 -7.657,-6.694 -12.498,-8.85 -4.844,-2.157 -10.142,-3.237 -15.893,-3.237 -2.158,0 -4.22,0.276 -6.187,0.826 -1.967,0.549 -3.817,1.268 -5.552,2.157 -1.735,0.888 -3.331,1.892 -4.789,3.014 -1.46,1.12 -2.762,2.252 -3.904,3.394 z"
             style="fill:#430307;fill-opacity:1;fill-rule:nonzero;stroke:none"
             id="path3843"
             inkscape:connector-curvature="0" /></g><g
           id="g3845"
           transform="translate(266.3286,220.3752)"><path
             d="m 0,0 c 0,-2.791 0.432,-5.403 1.299,-7.835 0.868,-2.434 2.096,-4.537 3.68,-6.313 1.586,-1.777 3.512,-3.184 5.775,-4.219 2.262,-1.037 4.811,-1.555 7.646,-1.555 2.748,0 5.233,0.518 7.455,1.555 2.22,1.035 4.101,2.442 5.645,4.219 1.545,1.776 2.729,3.879 3.554,6.313 0.825,2.432 1.237,5.044 1.237,7.835 0,2.707 -0.412,5.287 -1.237,7.741 -0.825,2.453 -2.009,4.61 -3.554,6.472 -1.544,1.86 -3.425,3.331 -5.645,4.41 C 23.633,19.7 21.148,20.24 18.4,20.24 15.565,20.24 13.016,19.7 10.754,18.623 8.491,17.544 6.565,16.073 4.979,14.213 3.395,12.351 2.167,10.194 1.299,7.741 0.432,5.287 0,2.707 0,0 m -23.16,0 c 0,3.892 0.498,7.635 1.492,11.23 0.993,3.595 2.39,6.926 4.189,9.995 1.796,3.065 3.954,5.857 6.47,8.374 2.516,2.516 5.32,4.664 8.406,6.439 3.088,1.777 6.42,3.151 9.994,4.125 3.574,0.973 7.307,1.459 11.199,1.459 5.752,0 11.156,-1.068 16.21,-3.204 5.054,-2.137 9.453,-5.076 13.197,-8.819 C 51.741,25.855 54.7,21.455 56.88,16.402 59.057,11.347 60.148,5.879 60.148,0 c 0,-3.892 -0.498,-7.624 -1.491,-11.197 -0.994,-3.575 -2.39,-6.907 -4.187,-9.994 -1.799,-3.088 -3.957,-5.891 -6.473,-8.407 -2.516,-2.517 -5.32,-4.674 -8.407,-6.471 -3.087,-1.798 -6.397,-3.184 -9.929,-4.156 -3.532,-0.972 -7.223,-1.46 -11.071,-1.46 -3.892,0 -7.625,0.488 -11.199,1.46 -3.574,0.972 -6.906,2.358 -9.994,4.156 -3.086,1.797 -5.89,3.954 -8.406,6.471 -2.516,2.516 -4.674,5.319 -6.47,8.407 -1.799,3.087 -3.196,6.419 -4.189,9.994 -0.994,3.573 -1.492,7.305 -1.492,11.197"
             style="fill:#430307;fill-opacity:1;fill-rule:nonzero;stroke:none"
             id="path3847"
             inkscape:connector-curvature="0" /></g><g
           id="g3849"
           transform="translate(340.752,259.593)"><path
             d="m 0,0 c 0.549,0.465 1.131,0.762 1.746,0.889 0.61,0.126 1.192,0.19 1.744,0.19 h 9.581 c 0.762,0 1.417,-0.139 1.966,-0.413 0.55,-0.275 1.015,-0.645 1.396,-1.109 0.38,-0.464 0.688,-0.992 0.921,-1.582 0.231,-0.591 0.453,-1.203 0.666,-1.834 l 1.332,-5.568 c 0.635,1.307 1.659,2.657 3.078,4.049 1.416,1.392 3.171,2.656 5.264,3.796 2.096,1.139 4.516,2.077 7.265,2.816 2.75,0.737 5.815,1.107 9.201,1.107 4.822,0 9.126,-0.928 12.912,-2.784 3.784,-1.856 6.999,-4.386 9.644,-7.593 2.642,-3.206 4.651,-6.951 6.028,-11.237 1.372,-4.288 2.06,-8.862 2.06,-13.726 v -41.559 c 0,-1.608 -0.347,-2.823 -1.047,-3.648 -0.697,-0.824 -1.808,-1.236 -3.33,-1.236 H 55.771 c -1.819,0 -3.067,0.305 -3.744,0.919 -0.677,0.613 -1.016,1.808 -1.016,3.585 v 41.304 c 0,1.819 -0.411,3.542 -1.237,5.171 -0.823,1.628 -1.914,3.067 -3.266,4.315 -1.354,1.247 -2.888,2.23 -4.601,2.95 -1.713,0.718 -3.458,1.079 -5.233,1.079 -1.525,0 -3.078,-0.34 -4.665,-1.016 -1.587,-0.677 -3.045,-1.617 -4.377,-2.823 -1.332,-1.205 -2.454,-2.623 -3.363,-4.251 -0.91,-1.629 -1.428,-3.395 -1.554,-5.298 v -41.241 c 0,-0.72 -0.139,-1.439 -0.414,-2.156 -0.274,-0.721 -0.688,-1.27 -1.237,-1.651 -0.548,-0.34 -1.068,-0.57 -1.553,-0.698 -0.487,-0.127 -1.047,-0.189 -1.682,-0.189 H 3.49 c -1.819,0 -3.132,0.443 -3.935,1.332 -0.803,0.887 -1.203,2.072 -1.203,3.552 v 70.952 c 0,0.8 0.179,1.539 0.537,2.213 0.361,0.675 0.857,1.203 1.491,1.582 z"
             style="fill:#430307;fill-opacity:1;fill-rule:nonzero;stroke:none"
             id="path3851"
             inkscape:connector-curvature="0" /></g><g
           id="g3853"
           transform="translate(430.7187,255.7795)"><path
             d="m 0,0 c 0,1.354 0.38,2.516 1.142,3.489 0.76,0.973 1.945,1.46 3.553,1.46 h 14.53 c 0.506,0 1.055,-0.117 1.649,-0.349 0.593,-0.233 1.142,-0.572 1.65,-1.015 0.507,-0.444 0.941,-0.963 1.299,-1.555 0.359,-0.592 0.54,-1.269 0.54,-2.03 v -70.744 c 0,-1.609 -0.444,-2.823 -1.332,-3.649 -0.889,-0.824 -2.157,-1.236 -3.806,-1.236 H 4.695 C 1.564,-75.629 0,-74.002 0,-70.744 Z m 0,32.105 c 0,1.776 0.38,3.035 1.142,3.774 0.76,0.739 1.945,1.111 3.553,1.111 h 14.72 c 1.479,0 2.674,-0.372 3.585,-1.111 0.907,-0.739 1.363,-1.998 1.363,-3.774 V 19.732 c 0,-0.507 -0.117,-1.057 -0.349,-1.65 -0.233,-0.593 -0.56,-1.164 -0.983,-1.713 -0.423,-0.55 -0.942,-1.005 -1.555,-1.363 -0.614,-0.36 -1.299,-0.54 -2.061,-0.54 H 4.695 C 1.564,14.466 0,16.221 0,19.732 Z"
             style="fill:#430307;fill-opacity:1;fill-rule:nonzero;stroke:none"
             id="path3855"
             inkscape:connector-curvature="0" /></g><g
           id="g3857"
           transform="translate(475.1924,273.2912)"><path
             d="m 0,0 c 0,1.311 0.434,2.293 1.302,2.949 0.867,0.656 2.104,1.28 3.711,1.872 l 14.403,5.013 c 0.21,0.042 0.411,0.063 0.602,0.063 h 0.54 c 1.564,0 2.611,-0.455 3.14,-1.364 0.529,-0.91 0.794,-2.103 0.794,-3.584 L 24.428,-12.5 h 8.692 c 1.355,0 2.454,-0.402 3.3,-1.204 0.845,-0.805 1.269,-2.011 1.269,-3.617 v -12.245 c 0,-1.778 -0.424,-3.078 -1.269,-3.903 -0.846,-0.824 -1.945,-1.237 -3.3,-1.237 h -8.692 l 0.064,-53.55 c 0,-1.608 -0.467,-2.823 -1.396,-3.648 -0.932,-0.825 -2.222,-1.237 -3.87,-1.237 H 4.887 C 1.629,-93.141 0,-91.514 0,-88.256 l -0.062,53.55 h -6.537 c -3.256,0 -4.883,1.713 -4.883,5.14 v 12.245 c 0,3.214 1.627,4.821 4.883,4.821 h 6.537 z"
             style="fill:#430307;fill-opacity:1;fill-rule:nonzero;stroke:none"
             id="path3859"
             inkscape:connector-curvature="0" /></g><g
           id="g3861"
           transform="translate(542.8291,220.3752)"><path
             d="m 0,0 c 0,-2.791 0.434,-5.403 1.301,-7.835 0.865,-2.434 2.102,-4.537 3.711,-6.313 1.606,-1.777 3.543,-3.184 5.806,-4.219 2.262,-1.037 4.767,-1.555 7.518,-1.555 2.835,0 5.468,0.518 7.899,1.555 2.433,1.035 4.546,2.442 6.345,4.219 1.797,1.776 3.204,3.879 4.22,6.313 1.015,2.432 1.522,5.044 1.522,7.835 0,2.707 -0.507,5.287 -1.522,7.741 -1.016,2.453 -2.423,4.61 -4.22,6.472 -1.799,1.86 -3.912,3.331 -6.345,4.41 -2.431,1.077 -5.064,1.617 -7.899,1.617 -2.751,0 -5.256,-0.54 -7.518,-1.617 -2.263,-1.079 -4.2,-2.55 -5.806,-4.41 C 3.403,12.351 2.166,10.194 1.301,7.741 0.434,5.287 0,2.707 0,0 m 62.496,-35.53 c 0,-0.72 -0.126,-1.407 -0.381,-2.062 -0.255,-0.656 -0.677,-1.174 -1.27,-1.554 -0.465,-0.466 -1.014,-0.761 -1.649,-0.889 -0.634,-0.127 -1.183,-0.19 -1.648,-0.19 H 45.047 c -0.887,0 -1.609,0.116 -2.157,0.348 -0.549,0.232 -0.994,0.562 -1.332,0.984 -0.339,0.422 -0.624,0.942 -0.857,1.554 -0.232,0.613 -0.475,1.279 -0.73,1.999 l -0.824,2.856 c -1.141,-1.142 -2.442,-2.264 -3.903,-3.363 -1.458,-1.101 -3.066,-2.085 -4.821,-2.951 -1.755,-0.867 -3.639,-1.564 -5.648,-2.094 -2.009,-0.528 -4.091,-0.793 -6.249,-0.793 -3.848,0 -7.539,0.488 -11.071,1.46 -3.531,0.972 -6.831,2.358 -9.898,4.156 -3.067,1.797 -5.849,3.954 -8.342,6.471 -2.496,2.516 -4.643,5.319 -6.44,8.407 -1.799,3.087 -3.184,6.419 -4.156,9.994 -0.973,3.573 -1.461,7.305 -1.461,11.197 0,5.879 1.08,11.347 3.236,16.402 2.158,5.053 5.098,9.453 8.821,13.197 3.722,3.743 8.098,6.682 13.133,8.819 5.032,2.136 10.426,3.204 16.178,3.204 2.622,0 5.066,-0.296 7.329,-0.888 2.261,-0.593 4.335,-1.396 6.218,-2.411 1.881,-1.015 3.585,-2.232 5.108,-3.648 1.522,-1.418 2.854,-2.95 3.996,-4.601 l 1.842,5.774 c 0.419,1.057 0.769,1.914 1.045,2.57 0.275,0.655 0.572,1.142 0.888,1.46 0.317,0.317 0.708,0.527 1.175,0.634 0.465,0.104 1.12,0.159 1.965,0.159 h 9.456 c 0.465,0 1.014,-0.065 1.648,-0.191 0.635,-0.126 1.184,-0.423 1.649,-0.888 0.593,-0.466 1.015,-0.994 1.27,-1.586 0.255,-0.594 0.381,-1.27 0.381,-2.03 z"
             style="fill:#430307;fill-opacity:1;fill-rule:nonzero;stroke:none"
             id="path3863"
             inkscape:connector-curvature="0" /></g><g
           id="g3865"
           transform="translate(632.6055,205.2121)"><path
             d="m 0,0 c 1.142,-1.142 2.381,-2.104 3.713,-2.887 1.332,-0.783 2.611,-1.419 3.837,-1.904 1.226,-0.486 2.305,-0.835 3.237,-1.047 0.93,-0.212 1.565,-0.316 1.903,-0.316 0.804,0 1.829,0.031 3.077,0.095 1.248,0.063 2.442,0.253 3.585,0.571 1.141,0.316 2.126,0.835 2.952,1.554 0.822,0.718 1.236,1.734 1.236,3.045 0,1.184 -0.234,2.126 -0.699,2.824 -0.465,0.698 -1.142,1.291 -2.029,1.777 -0.89,0.485 -1.979,0.92 -3.269,1.3 -1.29,0.381 -2.739,0.826 -4.346,1.332 -5.076,1.353 -9.262,2.982 -12.562,4.886 -3.3,1.903 -5.91,4.029 -7.836,6.376 -1.925,2.348 -3.269,4.874 -4.029,7.581 -0.762,2.709 -1.142,5.563 -1.142,8.567 0,3.511 0.699,6.704 2.093,9.581 1.396,2.875 3.383,5.339 5.966,7.391 2.578,2.05 5.667,3.637 9.263,4.758 3.594,1.121 7.592,1.682 11.991,1.682 2.664,0 5.161,-0.223 7.487,-0.666 2.325,-0.444 4.547,-1.142 6.663,-2.095 2.113,-0.951 4.176,-2.178 6.184,-3.679 2.01,-1.502 4.008,-3.289 5.997,-5.361 0.717,-0.846 1.089,-1.64 1.109,-2.38 0.022,-0.74 -0.453,-1.534 -1.427,-2.379 -1.649,-1.354 -3.226,-2.686 -4.726,-3.998 -1.503,-1.31 -3.057,-2.77 -4.664,-4.377 -0.508,-0.423 -1.015,-0.688 -1.522,-0.793 -0.509,-0.106 -0.996,-0.095 -1.46,0.032 -0.465,0.127 -0.91,0.338 -1.333,0.634 -0.422,0.295 -0.803,0.655 -1.142,1.079 -1.48,1.65 -3.172,2.759 -5.076,3.331 -1.903,0.57 -3.679,0.856 -5.328,0.856 -2.074,0 -3.723,-0.36 -4.95,-1.078 -1.227,-0.721 -1.797,-1.82 -1.713,-3.3 0.084,-1.1 0.498,-1.957 1.236,-2.569 0.742,-0.613 1.652,-1.111 2.729,-1.491 1.08,-0.38 2.222,-0.688 3.428,-0.92 1.204,-0.233 2.315,-0.498 3.331,-0.794 3.805,-1.227 7.296,-2.559 10.468,-3.996 3.171,-1.439 5.922,-3.204 8.247,-5.298 2.327,-2.094 4.134,-4.601 5.426,-7.519 1.288,-2.919 1.935,-6.471 1.935,-10.659 0,-4.187 -0.837,-7.931 -2.507,-11.229 -1.671,-3.3 -3.966,-6.072 -6.883,-8.312 -2.918,-2.243 -6.377,-3.956 -10.374,-5.14 -3.998,-1.183 -8.302,-1.777 -12.912,-1.777 -2.622,0 -5.288,0.233 -7.995,0.698 -2.706,0.466 -5.328,1.215 -7.866,2.253 -2.538,1.035 -4.949,2.368 -7.235,3.996 -2.283,1.628 -4.312,3.607 -6.089,5.933 -0.467,0.593 -0.814,1.215 -1.046,1.872 -0.236,0.655 -0.339,1.301 -0.32,1.936 0.023,0.633 0.149,1.214 0.381,1.744 0.233,0.528 0.605,0.983 1.111,1.364 l 8.185,8.185 c 1.017,0.845 1.912,1.142 2.695,0.888 C -2.23,1.903 -1.227,1.184 0,0"
             style="fill:#430307;fill-opacity:1;fill-rule:nonzero;stroke:none"
             id="path3867"
             inkscape:connector-curvature="0" /></g><g
           id="g3869"
           transform="translate(109.2568,124.8986)"><path
             d="m 0,0 c -0.035,-0.327 -0.205,-0.49 -0.508,-0.49 h -0.018 c -0.28,0.034 -0.42,0.192 -0.42,0.472 V 0.088 L 1.086,24.1 c 0.012,0.105 0.065,0.201 0.159,0.289 0.093,0.088 0.21,0.136 0.35,0.149 h 0.07 c 0.046,0 0.102,-0.02 0.167,-0.061 0.064,-0.041 0.114,-0.103 0.148,-0.185 l 9.816,-20.839 9.709,20.769 c 0.059,0.117 0.126,0.199 0.202,0.246 0.076,0.046 0.143,0.07 0.202,0.07 h 0.017 c 0.14,0 0.257,-0.039 0.351,-0.114 0.093,-0.076 0.146,-0.185 0.157,-0.324 L 24.485,0.035 V -0.07 c 0,-0.245 -0.14,-0.386 -0.421,-0.42 h -0.018 c -0.163,0 -0.283,0.032 -0.358,0.096 -0.077,0.064 -0.126,0.184 -0.149,0.36 L 21.628,22.224 12.216,2.121 C 12.135,1.969 12.006,1.894 11.831,1.894 h -0.053 c -0.187,0 -0.321,0.075 -0.403,0.227 L 1.893,22.26 Z"
             style="fill:#430307;fill-opacity:1;fill-rule:nonzero;stroke:none"
             id="path3871"
             inkscape:connector-curvature="0" /></g><g
           id="g3873"
           transform="translate(109.2568,124.8986)"><path
             d="m 0,0 c -0.035,-0.327 -0.205,-0.49 -0.508,-0.49 h -0.018 c -0.28,0.034 -0.42,0.192 -0.42,0.472 V 0.088 L 1.086,24.1 c 0.012,0.105 0.065,0.201 0.159,0.289 0.093,0.088 0.21,0.136 0.35,0.149 h 0.07 c 0.046,0 0.102,-0.02 0.167,-0.061 0.064,-0.041 0.114,-0.103 0.148,-0.185 l 9.816,-20.839 9.709,20.769 c 0.059,0.117 0.126,0.199 0.202,0.246 0.076,0.046 0.143,0.07 0.202,0.07 h 0.017 c 0.14,0 0.257,-0.039 0.351,-0.114 0.093,-0.076 0.146,-0.185 0.157,-0.324 L 24.485,0.035 V -0.07 c 0,-0.245 -0.14,-0.386 -0.421,-0.42 h -0.018 c -0.163,0 -0.283,0.032 -0.358,0.096 -0.077,0.064 -0.126,0.184 -0.149,0.36 L 21.628,22.224 12.216,2.121 C 12.135,1.969 12.006,1.894 11.831,1.894 h -0.053 c -0.187,0 -0.321,0.075 -0.403,0.227 L 1.893,22.26 Z"
             style="fill:none;stroke:#430307;stroke-width:0.5;stroke-linecap:butt;stroke-linejoin:miter;stroke-miterlimit:10;stroke-dasharray:none;stroke-opacity:1"
             id="path3875"
             inkscape:connector-curvature="0" /></g><g
           id="g3877"
           transform="translate(142.9458,145.8957)"><path
             d="m 0,0 h 0.018 c 0.315,0 0.473,-0.181 0.473,-0.543 v -20.384 c 0,-0.374 -0.158,-0.56 -0.473,-0.56 H 0 c -0.164,0 -0.286,0.049 -0.368,0.148 -0.082,0.099 -0.123,0.236 -0.123,0.412 V -0.543 C -0.491,-0.181 -0.327,0 0,0 m -0.455,5.907 h 0.858 c 0.222,0 0.333,-0.129 0.333,-0.386 V 4.75 C 0.736,4.493 0.625,4.364 0.403,4.364 h -0.841 c -0.141,0 -0.236,0.03 -0.289,0.088 C -0.78,4.51 -0.806,4.609 -0.806,4.75 v 0.807 c 0,0.233 0.117,0.35 0.351,0.35"
             style="fill:#430307;fill-opacity:1;fill-rule:nonzero;stroke:none"
             id="path3879"
             inkscape:connector-curvature="0" /></g><g
           id="g3881"
           transform="translate(142.9458,145.8957)"><path
             d="m 0,0 h 0.018 c 0.315,0 0.473,-0.181 0.473,-0.543 v -20.384 c 0,-0.374 -0.158,-0.56 -0.473,-0.56 H 0 c -0.164,0 -0.286,0.049 -0.368,0.148 -0.082,0.099 -0.123,0.236 -0.123,0.412 V -0.543 C -0.491,-0.181 -0.327,0 0,0 Z m -0.455,5.907 h 0.858 c 0.222,0 0.333,-0.129 0.333,-0.386 V 4.75 C 0.736,4.493 0.625,4.364 0.403,4.364 h -0.841 c -0.141,0 -0.236,0.03 -0.289,0.088 C -0.78,4.51 -0.806,4.609 -0.806,4.75 v 0.807 c 0,0.233 0.117,0.35 0.351,0.35 z"
             style="fill:none;stroke:#430307;stroke-width:0.5;stroke-linecap:butt;stroke-linejoin:miter;stroke-miterlimit:10;stroke-dasharray:none;stroke-opacity:1"
             id="path3883"
             inkscape:connector-curvature="0" /></g><g
           id="g3885"
           transform="translate(170.0454,127.633)"><path
             d="m 0,0 c 0.128,0 0.23,-0.047 0.307,-0.14 0.076,-0.093 0.113,-0.199 0.113,-0.316 0,-0.175 -0.076,-0.321 -0.227,-0.438 -2.278,-1.87 -4.738,-2.804 -7.379,-2.804 -1.998,0 -3.856,0.502 -5.574,1.507 -1.718,1.004 -3.081,2.361 -4.092,4.067 -1.011,1.705 -1.516,3.552 -1.516,5.538 0,2.057 0.519,3.932 1.56,5.626 1.039,1.693 2.41,3.023 4.11,3.987 1.7,0.964 3.49,1.447 5.371,1.447 1.239,0 2.536,-0.249 3.891,-0.745 1.356,-0.498 2.519,-1.184 3.489,-2.06 0.14,-0.117 0.21,-0.252 0.21,-0.403 0,-0.141 -0.041,-0.257 -0.123,-0.351 -0.082,-0.094 -0.199,-0.141 -0.35,-0.141 -0.118,0 -0.228,0.053 -0.334,0.159 -0.923,0.852 -1.972,1.496 -3.145,1.927 -1.175,0.433 -2.323,0.65 -3.444,0.65 -1.777,0 -3.453,-0.439 -5.031,-1.315 -1.577,-0.877 -2.845,-2.086 -3.803,-3.629 -0.958,-1.542 -1.437,-3.259 -1.437,-5.152 0,-1.823 0.461,-3.512 1.384,-5.065 0.924,-1.554 2.167,-2.79 3.733,-3.707 1.566,-0.918 3.261,-1.376 5.083,-1.376 1.426,0 2.682,0.228 3.768,0.683 1.087,0.456 2.098,1.087 3.033,1.893 C -0.275,-0.053 -0.141,0 0,0"
             style="fill:#430307;fill-opacity:1;fill-rule:nonzero;stroke:none"
             id="path3887"
             inkscape:connector-curvature="0" /></g><g
           id="g3889"
           transform="translate(170.0454,127.633)"><path
             d="m 0,0 c 0.128,0 0.23,-0.047 0.307,-0.14 0.076,-0.093 0.113,-0.199 0.113,-0.316 0,-0.175 -0.076,-0.321 -0.227,-0.438 -2.278,-1.87 -4.738,-2.804 -7.379,-2.804 -1.998,0 -3.856,0.502 -5.574,1.507 -1.718,1.004 -3.081,2.361 -4.092,4.067 -1.011,1.705 -1.516,3.552 -1.516,5.538 0,2.057 0.519,3.932 1.56,5.626 1.039,1.693 2.41,3.023 4.11,3.987 1.7,0.964 3.49,1.447 5.371,1.447 1.239,0 2.536,-0.249 3.891,-0.745 1.356,-0.498 2.519,-1.184 3.489,-2.06 0.14,-0.117 0.21,-0.252 0.21,-0.403 0,-0.141 -0.041,-0.257 -0.123,-0.351 -0.082,-0.094 -0.199,-0.141 -0.35,-0.141 -0.118,0 -0.228,0.053 -0.334,0.159 -0.923,0.852 -1.972,1.496 -3.145,1.927 -1.175,0.433 -2.323,0.65 -3.444,0.65 -1.777,0 -3.453,-0.439 -5.031,-1.315 -1.577,-0.877 -2.845,-2.086 -3.803,-3.629 -0.958,-1.542 -1.437,-3.259 -1.437,-5.152 0,-1.823 0.461,-3.512 1.384,-5.065 0.924,-1.554 2.167,-2.79 3.733,-3.707 1.566,-0.918 3.261,-1.376 5.083,-1.376 1.426,0 2.682,0.228 3.768,0.683 1.087,0.456 2.098,1.087 3.033,1.893 C -0.275,-0.053 -0.141,0 0,0 Z"
             style="fill:none;stroke:#430307;stroke-width:0.5;stroke-linecap:butt;stroke-linejoin:miter;stroke-miterlimit:10;stroke-dasharray:none;stroke-opacity:1"
             id="path3891"
             inkscape:connector-curvature="0" /></g><g
           id="g3893"
           transform="translate(178.0923,145.8957)"><path
             d="m 0,0 h 0.018 c 0.303,0 0.455,-0.181 0.455,-0.543 v -4.47 c 0.421,1.04 1.064,1.917 1.928,2.629 0.865,0.713 1.811,1.241 2.839,1.587 1.029,0.344 2.022,0.517 2.98,0.517 0.806,0 1.659,-0.161 2.559,-0.483 0.9,-0.321 1.662,-0.698 2.287,-1.13 0.625,-0.432 0.938,-0.789 0.938,-1.069 0,-0.094 -0.024,-0.164 -0.07,-0.21 l -0.018,-0.017 c -0.104,-0.129 -0.233,-0.194 -0.385,-0.194 -0.129,0 -0.252,0.053 -0.368,0.158 -1.59,1.321 -3.22,1.981 -4.89,1.981 -1.204,0 -2.401,-0.283 -3.593,-0.85 -1.192,-0.567 -2.188,-1.478 -2.989,-2.734 -0.8,-1.257 -1.2,-2.849 -1.2,-4.776 v -11.323 c 0,-0.374 -0.158,-0.56 -0.473,-0.56 H 0 c -0.315,0 -0.473,0.186 -0.473,0.56 V -0.543 C -0.473,-0.181 -0.315,0 0,0"
             style="fill:#430307;fill-opacity:1;fill-rule:nonzero;stroke:none"
             id="path3895"
             inkscape:connector-curvature="0" /></g><g
           id="g3897"
           transform="translate(178.0923,145.8957)"><path
             d="m 0,0 h 0.018 c 0.303,0 0.455,-0.181 0.455,-0.543 v -4.47 c 0.421,1.04 1.064,1.917 1.928,2.629 0.865,0.713 1.811,1.241 2.839,1.587 1.029,0.344 2.022,0.517 2.98,0.517 0.806,0 1.659,-0.161 2.559,-0.483 0.9,-0.321 1.662,-0.698 2.287,-1.13 0.625,-0.432 0.938,-0.789 0.938,-1.069 0,-0.094 -0.024,-0.164 -0.07,-0.21 l -0.018,-0.017 c -0.104,-0.129 -0.233,-0.194 -0.385,-0.194 -0.129,0 -0.252,0.053 -0.368,0.158 -1.59,1.321 -3.22,1.981 -4.89,1.981 -1.204,0 -2.401,-0.283 -3.593,-0.85 -1.192,-0.567 -2.188,-1.478 -2.989,-2.734 -0.8,-1.257 -1.2,-2.849 -1.2,-4.776 v -11.323 c 0,-0.374 -0.158,-0.56 -0.473,-0.56 H 0 c -0.315,0 -0.473,0.186 -0.473,0.56 V -0.543 C -0.473,-0.181 -0.315,0 0,0 Z"
             style="fill:none;stroke:#430307;stroke-width:0.5;stroke-linecap:butt;stroke-linejoin:miter;stroke-miterlimit:10;stroke-dasharray:none;stroke-opacity:1"
             id="path3899"
             inkscape:connector-curvature="0" /></g><g
           id="g3901"
           transform="translate(198.4873,130.0168)"><path
             d="m 0,0 c 0.894,-1.566 2.106,-2.811 3.637,-3.733 1.53,-0.923 3.201,-1.385 5.012,-1.385 1.893,0 3.622,0.462 5.188,1.385 1.566,0.922 2.798,2.165 3.699,3.724 0.899,1.56 1.349,3.251 1.349,5.074 0,1.823 -0.464,3.505 -1.393,5.047 -0.93,1.543 -2.179,2.767 -3.751,3.673 -1.572,0.905 -3.281,1.358 -5.127,1.358 -1.811,0 -3.479,-0.451 -5.003,-1.35 C 2.085,12.894 0.879,11.673 -0.009,10.131 -0.897,8.588 -1.341,6.899 -1.341,5.065 -1.341,3.254 -0.894,1.565 0,0 m -0.841,10.604 c 0.975,1.694 2.299,3.035 3.97,4.022 1.67,0.987 3.499,1.481 5.485,1.481 2.01,0 3.876,-0.497 5.6,-1.49 1.724,-0.993 3.094,-2.334 4.11,-4.022 1.017,-1.689 1.525,-3.532 1.525,-5.53 0,-1.986 -0.508,-3.836 -1.525,-5.547 -1.016,-1.711 -2.384,-3.074 -4.101,-4.084 -1.718,-1.01 -3.576,-1.516 -5.574,-1.516 -1.975,0 -3.803,0.506 -5.485,1.516 -1.683,1.01 -3.015,2.373 -3.997,4.084 -0.981,1.711 -1.472,3.561 -1.472,5.547 0,1.998 0.488,3.844 1.464,5.539"
             style="fill:#430307;fill-opacity:1;fill-rule:nonzero;stroke:none"
             id="path3903"
             inkscape:connector-curvature="0" /></g><g
           id="g3905"
           transform="translate(198.4873,130.0168)"><path
             d="m 0,0 c 0.894,-1.566 2.106,-2.811 3.637,-3.733 1.53,-0.923 3.201,-1.385 5.012,-1.385 1.893,0 3.622,0.462 5.188,1.385 1.566,0.922 2.798,2.165 3.699,3.724 0.899,1.56 1.349,3.251 1.349,5.074 0,1.823 -0.464,3.505 -1.393,5.047 -0.93,1.543 -2.179,2.767 -3.751,3.673 -1.572,0.905 -3.281,1.358 -5.127,1.358 -1.811,0 -3.479,-0.451 -5.003,-1.35 C 2.085,12.894 0.879,11.673 -0.009,10.131 -0.897,8.588 -1.341,6.899 -1.341,5.065 -1.341,3.254 -0.894,1.565 0,0 Z m -0.841,10.604 c 0.975,1.694 2.299,3.035 3.97,4.022 1.67,0.987 3.499,1.481 5.485,1.481 2.01,0 3.876,-0.497 5.6,-1.49 1.724,-0.993 3.094,-2.334 4.11,-4.022 1.017,-1.689 1.525,-3.532 1.525,-5.53 0,-1.986 -0.508,-3.836 -1.525,-5.547 -1.016,-1.711 -2.384,-3.074 -4.101,-4.084 -1.718,-1.01 -3.576,-1.516 -5.574,-1.516 -1.975,0 -3.803,0.506 -5.485,1.516 -1.683,1.01 -3.015,2.373 -3.997,4.084 -0.981,1.711 -1.472,3.561 -1.472,5.547 0,1.998 0.488,3.844 1.464,5.539 z"
             style="fill:none;stroke:#430307;stroke-width:0.5;stroke-linecap:butt;stroke-linejoin:miter;stroke-miterlimit:10;stroke-dasharray:none;stroke-opacity:1"
             id="path3907"
             inkscape:connector-curvature="0" /></g><g
           id="g3909"
           transform="translate(228.021,130.0256)"><path
             d="m 0,0 c 0.871,-1.572 2.08,-2.819 3.629,-3.742 1.548,-0.923 3.291,-1.385 5.231,-1.385 1.811,0 3.491,0.465 5.039,1.394 1.548,0.928 2.775,2.181 3.681,3.759 0.905,1.578 1.358,3.284 1.358,5.118 0,1.788 -0.47,3.447 -1.411,4.978 -0.941,1.53 -2.188,2.745 -3.742,3.645 -1.554,0.9 -3.196,1.35 -4.925,1.35 -1.834,0 -3.531,-0.447 -5.091,-1.341 C 2.209,12.882 0.973,11.673 0.062,10.147 -0.85,8.623 -1.306,6.955 -1.306,5.144 -1.306,3.286 -0.87,1.571 0,0 m -2.147,15.722 c 0.082,0.098 0.205,0.148 0.369,0.148 h 0.017 c 0.303,0 0.455,-0.186 0.455,-0.56 V 9.543 c 0.573,1.285 1.373,2.419 2.402,3.4 1.028,0.982 2.211,1.745 3.549,2.287 1.337,0.544 2.737,0.816 4.198,0.816 1.892,0 3.692,-0.491 5.398,-1.473 1.706,-0.981 3.076,-2.307 4.11,-3.978 1.034,-1.671 1.551,-3.489 1.551,-5.451 0,-2.01 -0.488,-3.873 -1.463,-5.591 -0.977,-1.718 -2.312,-3.088 -4.005,-4.11 -1.695,-1.023 -3.559,-1.534 -5.591,-1.534 -1.496,0 -2.91,0.283 -4.242,0.85 -1.331,0.567 -2.503,1.355 -3.514,2.366 -1.011,1.011 -1.809,2.165 -2.393,3.462 v -12.725 c 0,-0.373 -0.152,-0.56 -0.455,-0.56 h -0.017 c -0.164,0 -0.287,0.05 -0.369,0.148 -0.082,0.1 -0.123,0.237 -0.123,0.412 V 15.31 c 0,0.174 0.041,0.312 0.123,0.412"
             style="fill:#430307;fill-opacity:1;fill-rule:nonzero;stroke:none"
             id="path3911"
             inkscape:connector-curvature="0" /></g><g
           id="g3913"
           transform="translate(228.021,130.0256)"><path
             d="m 0,0 c 0.871,-1.572 2.08,-2.819 3.629,-3.742 1.548,-0.923 3.291,-1.385 5.231,-1.385 1.811,0 3.491,0.465 5.039,1.394 1.548,0.928 2.775,2.181 3.681,3.759 0.905,1.578 1.358,3.284 1.358,5.118 0,1.788 -0.47,3.447 -1.411,4.978 -0.941,1.53 -2.188,2.745 -3.742,3.645 -1.554,0.9 -3.196,1.35 -4.925,1.35 -1.834,0 -3.531,-0.447 -5.091,-1.341 C 2.209,12.882 0.973,11.673 0.062,10.147 -0.85,8.623 -1.306,6.955 -1.306,5.144 -1.306,3.286 -0.87,1.571 0,0 Z m -2.147,15.722 c 0.082,0.098 0.205,0.148 0.369,0.148 h 0.017 c 0.303,0 0.455,-0.186 0.455,-0.56 V 9.543 c 0.573,1.285 1.373,2.419 2.402,3.4 1.028,0.982 2.211,1.745 3.549,2.287 1.337,0.544 2.737,0.816 4.198,0.816 1.892,0 3.692,-0.491 5.398,-1.473 1.706,-0.981 3.076,-2.307 4.11,-3.978 1.034,-1.671 1.551,-3.489 1.551,-5.451 0,-2.01 -0.488,-3.873 -1.463,-5.591 -0.977,-1.718 -2.312,-3.088 -4.005,-4.11 -1.695,-1.023 -3.559,-1.534 -5.591,-1.534 -1.496,0 -2.91,0.283 -4.242,0.85 -1.331,0.567 -2.503,1.355 -3.514,2.366 -1.011,1.011 -1.809,2.165 -2.393,3.462 v -12.725 c 0,-0.373 -0.152,-0.56 -0.455,-0.56 h -0.017 c -0.164,0 -0.287,0.05 -0.369,0.148 -0.082,0.1 -0.123,0.237 -0.123,0.412 V 15.31 c 0,0.174 0.041,0.312 0.123,0.412 z"
             style="fill:none;stroke:#430307;stroke-width:0.5;stroke-linecap:butt;stroke-linejoin:miter;stroke-miterlimit:10;stroke-dasharray:none;stroke-opacity:1"
             id="path3915"
             inkscape:connector-curvature="0" /></g><g
           id="g3917"
           transform="translate(256.1284,145.8957)"><path
             d="m 0,0 h 0.018 c 0.315,0 0.473,-0.181 0.473,-0.543 v -20.384 c 0,-0.374 -0.158,-0.56 -0.473,-0.56 H 0 c -0.164,0 -0.286,0.049 -0.368,0.148 -0.082,0.099 -0.123,0.236 -0.123,0.412 V -0.543 C -0.491,-0.181 -0.327,0 0,0 m -0.456,5.907 h 0.859 c 0.222,0 0.333,-0.129 0.333,-0.386 V 4.75 C 0.736,4.493 0.625,4.364 0.403,4.364 h -0.841 c -0.141,0 -0.236,0.03 -0.289,0.088 C -0.78,4.51 -0.806,4.609 -0.806,4.75 v 0.807 c 0,0.233 0.117,0.35 0.35,0.35"
             style="fill:#430307;fill-opacity:1;fill-rule:nonzero;stroke:none"
             id="path3919"
             inkscape:connector-curvature="0" /></g><g
           id="g3921"
           transform="translate(256.1284,145.8957)"><path
             d="m 0,0 h 0.018 c 0.315,0 0.473,-0.181 0.473,-0.543 v -20.384 c 0,-0.374 -0.158,-0.56 -0.473,-0.56 H 0 c -0.164,0 -0.286,0.049 -0.368,0.148 -0.082,0.099 -0.123,0.236 -0.123,0.412 V -0.543 C -0.491,-0.181 -0.327,0 0,0 Z m -0.456,5.907 h 0.859 c 0.222,0 0.333,-0.129 0.333,-0.386 V 4.75 C 0.736,4.493 0.625,4.364 0.403,4.364 h -0.841 c -0.141,0 -0.236,0.03 -0.289,0.088 C -0.78,4.51 -0.806,4.609 -0.806,4.75 v 0.807 c 0,0.233 0.117,0.35 0.35,0.35 z"
             style="fill:none;stroke:#430307;stroke-width:0.5;stroke-linecap:butt;stroke-linejoin:miter;stroke-miterlimit:10;stroke-dasharray:none;stroke-opacity:1"
             id="path3923"
             inkscape:connector-curvature="0" /></g><g
           id="g3925"
           transform="translate(285.1816,140.5939)"><path
             d="m 0,0 c -0.964,1.385 -2.179,2.489 -3.645,3.313 -1.466,0.824 -3.023,1.236 -4.671,1.236 -1.893,0 -3.61,-0.454 -5.153,-1.359 -1.542,-0.906 -2.758,-2.124 -3.646,-3.655 -0.887,-1.53 -1.332,-3.183 -1.332,-4.96 0,-2.044 0.477,-3.817 1.429,-5.319 0.952,-1.501 2.203,-2.647 3.75,-3.436 1.548,-0.788 3.199,-1.182 4.952,-1.182 1.787,0 3.418,0.4 4.89,1.201 1.472,0.8 2.664,1.887 3.575,3.26 0.912,1.373 1.449,2.877 1.613,4.512 v 1.911 C 1.551,-2.877 0.964,-1.385 0,0 m 2.76,-15.082 c 0,0 -0.388,-0.809 -1.165,-2.428 -0.777,-1.617 -1.799,-2.911 -3.067,-3.882 -1.268,-0.969 -2.632,-1.547 -4.093,-1.735 -0.514,-0.069 -1.051,-0.104 -1.612,-0.104 -0.666,0 -1.467,0.069 -2.401,0.21 -0.935,0.14 -1.744,0.335 -2.428,0.587 -0.683,0.251 -1.025,0.535 -1.025,0.85 0,0.105 0.024,0.182 0.07,0.228 l 0.035,0.052 c 0.106,0.129 0.234,0.193 0.386,0.193 0.105,0 0.234,-0.035 0.386,-0.105 0.654,-0.327 1.416,-0.579 2.287,-0.754 0.87,-0.175 1.761,-0.262 2.673,-0.262 1.133,0 2.114,0.122 2.944,0.368 1.075,0.314 2.077,0.94 3.006,1.875 0.929,0.934 1.671,2.097 2.226,3.487 0.554,1.391 0.832,2.898 0.832,4.523 l -0.035,2.068 c -0.56,-1.286 -1.341,-2.41 -2.34,-3.374 -0.999,-0.964 -2.158,-1.709 -3.479,-2.235 -1.32,-0.526 -2.74,-0.789 -4.258,-0.789 -1.929,0 -3.743,0.454 -5.443,1.359 -1.699,0.905 -3.07,2.187 -4.11,3.846 -1.04,1.66 -1.56,3.553 -1.56,5.679 0,1.929 0.512,3.734 1.534,5.416 1.023,1.683 2.386,3.024 4.092,4.023 1.706,0.999 3.535,1.499 5.487,1.499 1.402,0 2.763,-0.282 4.083,-0.842 1.32,-0.561 2.501,-1.338 3.541,-2.331 1.04,-0.993 1.852,-2.127 2.436,-3.401 v 5.802 c 0,0.175 0.043,0.313 0.131,0.412 0.087,0.099 0.213,0.149 0.378,0.149 0.326,0 0.489,-0.187 0.489,-0.561 v -16.738 z"
             style="fill:#430307;fill-opacity:1;fill-rule:nonzero;stroke:none"
             id="path3927"
             inkscape:connector-curvature="0" /></g><g
           id="g3929"
           transform="translate(285.1816,140.5939)"><path
             d="m 0,0 c -0.964,1.385 -2.179,2.489 -3.645,3.313 -1.466,0.824 -3.023,1.236 -4.671,1.236 -1.893,0 -3.61,-0.454 -5.153,-1.359 -1.542,-0.906 -2.758,-2.124 -3.646,-3.655 -0.887,-1.53 -1.332,-3.183 -1.332,-4.96 0,-2.044 0.477,-3.817 1.429,-5.319 0.952,-1.501 2.203,-2.647 3.75,-3.436 1.548,-0.788 3.199,-1.182 4.952,-1.182 1.787,0 3.418,0.4 4.89,1.201 1.472,0.8 2.664,1.887 3.575,3.26 0.912,1.373 1.449,2.877 1.613,4.512 v 1.911 C 1.551,-2.877 0.964,-1.385 0,0 Z m 2.76,-15.082 c 0,0 -0.388,-0.809 -1.165,-2.428 -0.777,-1.617 -1.799,-2.911 -3.067,-3.882 -1.268,-0.969 -2.632,-1.547 -4.093,-1.735 -0.514,-0.069 -1.051,-0.104 -1.612,-0.104 -0.666,0 -1.467,0.069 -2.401,0.21 -0.935,0.14 -1.744,0.335 -2.428,0.587 -0.683,0.251 -1.025,0.535 -1.025,0.85 0,0.105 0.024,0.182 0.07,0.228 l 0.035,0.052 c 0.106,0.129 0.234,0.193 0.386,0.193 0.105,0 0.234,-0.035 0.386,-0.105 0.654,-0.327 1.416,-0.579 2.287,-0.754 0.87,-0.175 1.761,-0.262 2.673,-0.262 1.133,0 2.114,0.122 2.944,0.368 1.075,0.314 2.077,0.94 3.006,1.875 0.929,0.934 1.671,2.097 2.226,3.487 0.554,1.391 0.832,2.898 0.832,4.523 l -0.035,2.068 c -0.56,-1.286 -1.341,-2.41 -2.34,-3.374 -0.999,-0.964 -2.158,-1.709 -3.479,-2.235 -1.32,-0.526 -2.74,-0.789 -4.258,-0.789 -1.929,0 -3.743,0.454 -5.443,1.359 -1.699,0.905 -3.07,2.187 -4.11,3.846 -1.04,1.66 -1.56,3.553 -1.56,5.679 0,1.929 0.512,3.734 1.534,5.416 1.023,1.683 2.386,3.024 4.092,4.023 1.706,0.999 3.535,1.499 5.487,1.499 1.402,0 2.763,-0.282 4.083,-0.842 1.32,-0.561 2.501,-1.338 3.541,-2.331 1.04,-0.993 1.852,-2.127 2.436,-3.401 v 5.802 c 0,0.175 0.043,0.313 0.131,0.412 0.087,0.099 0.213,0.149 0.378,0.149 0.326,0 0.489,-0.187 0.489,-0.561 v -16.738 z"
             style="fill:none;stroke:#430307;stroke-width:0.5;stroke-linecap:butt;stroke-linejoin:miter;stroke-miterlimit:10;stroke-dasharray:none;stroke-opacity:1"
             id="path3931"
             inkscape:connector-curvature="0" /></g><g
           id="g3933"
           transform="translate(296.6909,124.4084)"><path
             d="m 0,0 h -0.017 c -0.304,0 -0.456,0.181 -0.456,0.543 v 20.384 c 0,0.374 0.152,0.56 0.456,0.56 H 0 c 0.304,0 0.456,-0.186 0.456,-0.56 l 0.018,-3.242 c 0.455,0.864 1.057,1.583 1.805,2.155 0.747,0.572 1.545,0.996 2.392,1.27 0.848,0.275 1.668,0.412 2.463,0.412 1.904,0 3.423,-0.5 4.557,-1.498 1.133,-0.999 1.951,-2.229 2.454,-3.69 0.326,0.959 0.809,1.829 1.446,2.612 0.637,0.783 1.428,1.408 2.374,1.875 0.947,0.467 2.022,0.701 3.225,0.701 1.613,0 2.985,-0.409 4.119,-1.226 1.133,-0.818 1.983,-1.844 2.55,-3.076 0.567,-1.234 0.85,-2.451 0.85,-3.655 V 0.561 C 28.709,0.187 28.563,0 28.271,0 h -0.017 c -0.165,0 -0.29,0.049 -0.378,0.148 -0.087,0.099 -0.131,0.237 -0.131,0.413 v 13.004 c 0,1.017 -0.23,2.063 -0.692,3.138 -0.461,1.074 -1.186,1.981 -2.173,2.717 -0.988,0.735 -2.224,1.103 -3.707,1.103 -1.437,0 -2.65,-0.368 -3.637,-1.103 -0.987,-0.736 -1.721,-1.643 -2.2,-2.717 -0.479,-1.075 -0.718,-2.115 -0.718,-3.12 V 0.543 C 14.618,0.181 14.466,0 14.162,0 h -0.017 c -0.328,0 -0.491,0.181 -0.491,0.543 v 13.32 c 0,0.97 -0.234,1.972 -0.701,3.006 -0.468,1.034 -1.195,1.907 -2.182,2.62 -0.988,0.713 -2.211,1.07 -3.672,1.07 C 6.21,20.559 5.255,20.34 4.233,19.901 3.21,19.463 2.332,18.744 1.595,17.745 0.859,16.747 0.491,15.458 0.491,13.881 V 0.543 C 0.491,0.181 0.328,0 0,0"
             style="fill:#430307;fill-opacity:1;fill-rule:nonzero;stroke:none"
             id="path3935"
             inkscape:connector-curvature="0" /></g><g
           id="g3937"
           transform="translate(296.6909,124.4084)"><path
             d="m 0,0 h -0.017 c -0.304,0 -0.456,0.181 -0.456,0.543 v 20.384 c 0,0.374 0.152,0.56 0.456,0.56 H 0 c 0.304,0 0.456,-0.186 0.456,-0.56 l 0.018,-3.242 c 0.455,0.864 1.057,1.583 1.805,2.155 0.747,0.572 1.545,0.996 2.392,1.27 0.848,0.275 1.668,0.412 2.463,0.412 1.904,0 3.423,-0.5 4.557,-1.498 1.133,-0.999 1.951,-2.229 2.454,-3.69 0.326,0.959 0.809,1.829 1.446,2.612 0.637,0.783 1.428,1.408 2.374,1.875 0.947,0.467 2.022,0.701 3.225,0.701 1.613,0 2.985,-0.409 4.119,-1.226 1.133,-0.818 1.983,-1.844 2.55,-3.076 0.567,-1.234 0.85,-2.451 0.85,-3.655 V 0.561 C 28.709,0.187 28.563,0 28.271,0 h -0.017 c -0.165,0 -0.29,0.049 -0.378,0.148 -0.087,0.099 -0.131,0.237 -0.131,0.413 v 13.004 c 0,1.017 -0.23,2.063 -0.692,3.138 -0.461,1.074 -1.186,1.981 -2.173,2.717 -0.988,0.735 -2.224,1.103 -3.707,1.103 -1.437,0 -2.65,-0.368 -3.637,-1.103 -0.987,-0.736 -1.721,-1.643 -2.2,-2.717 -0.479,-1.075 -0.718,-2.115 -0.718,-3.12 V 0.543 C 14.618,0.181 14.466,0 14.162,0 h -0.017 c -0.328,0 -0.491,0.181 -0.491,0.543 v 13.32 c 0,0.97 -0.234,1.972 -0.701,3.006 -0.468,1.034 -1.195,1.907 -2.182,2.62 -0.988,0.713 -2.211,1.07 -3.672,1.07 C 6.21,20.559 5.255,20.34 4.233,19.901 3.21,19.463 2.332,18.744 1.595,17.745 0.859,16.747 0.491,15.458 0.491,13.881 V 0.543 C 0.491,0.181 0.328,0 0,0 Z"
             style="fill:none;stroke:#430307;stroke-width:0.5;stroke-linecap:butt;stroke-linejoin:miter;stroke-miterlimit:10;stroke-dasharray:none;stroke-opacity:1"
             id="path3939"
             inkscape:connector-curvature="0" /></g><g
           id="g3941"
           transform="translate(339.8975,143.9152)"><path
             d="m 0,0 c -1.46,-0.818 -2.659,-1.922 -3.593,-3.313 -0.935,-1.39 -1.496,-2.909 -1.682,-4.556 h 20.138 c -0.094,1.378 -0.591,2.774 -1.49,4.188 -0.9,1.414 -2.109,2.586 -3.628,3.515 C 8.226,0.763 6.543,1.228 4.697,1.228 3.026,1.228 1.46,0.817 0,0 m -5.328,-8.956 c 0,-1.8 0.453,-3.474 1.358,-5.022 0.906,-1.548 2.13,-2.781 3.672,-3.698 1.543,-0.917 3.219,-1.375 5.03,-1.375 1.11,0 2.092,0.128 2.945,0.385 0.853,0.257 1.562,0.561 2.129,0.911 0.567,0.351 1.183,0.789 1.849,1.315 0.129,0.105 0.269,0.158 0.421,0.158 0.105,0 0.193,-0.035 0.263,-0.106 l 0.035,-0.034 c 0.07,-0.071 0.105,-0.158 0.105,-0.264 0,-0.164 -0.07,-0.309 -0.21,-0.437 C 11.24,-18 10.11,-18.695 8.877,-19.209 7.645,-19.724 6.263,-19.98 4.732,-19.98 c -1.986,0 -3.824,0.496 -5.512,1.49 -1.688,0.992 -3.03,2.334 -4.022,4.022 -0.993,1.688 -1.49,3.526 -1.49,5.512 0,1.986 0.497,3.835 1.49,5.547 0.992,1.712 2.331,3.073 4.013,4.084 1.683,1.011 3.512,1.516 5.486,1.516 2.045,0 3.92,-0.523 5.627,-1.569 1.705,-1.046 3.049,-2.381 4.03,-4.005 0.982,-1.624 1.473,-3.254 1.473,-4.889 v -0.071 c 0,-0.315 -0.164,-0.472 -0.491,-0.472 H -5.328 Z"
             style="fill:#430307;fill-opacity:1;fill-rule:nonzero;stroke:none"
             id="path3943"
             inkscape:connector-curvature="0" /></g><g
           id="g3945"
           transform="translate(339.8975,143.9152)"><path
             d="m 0,0 c -1.46,-0.818 -2.659,-1.922 -3.593,-3.313 -0.935,-1.39 -1.496,-2.909 -1.682,-4.556 h 20.138 c -0.094,1.378 -0.591,2.774 -1.49,4.188 -0.9,1.414 -2.109,2.586 -3.628,3.515 C 8.226,0.763 6.543,1.228 4.697,1.228 3.026,1.228 1.46,0.817 0,0 Z m -5.328,-8.956 c 0,-1.8 0.453,-3.474 1.358,-5.022 0.906,-1.548 2.13,-2.781 3.672,-3.698 1.543,-0.917 3.219,-1.375 5.03,-1.375 1.11,0 2.092,0.128 2.945,0.385 0.853,0.257 1.562,0.561 2.129,0.911 0.567,0.351 1.183,0.789 1.849,1.315 0.129,0.105 0.269,0.158 0.421,0.158 0.105,0 0.193,-0.035 0.263,-0.106 l 0.035,-0.034 c 0.07,-0.071 0.105,-0.158 0.105,-0.264 0,-0.164 -0.07,-0.309 -0.21,-0.437 C 11.24,-18 10.11,-18.695 8.877,-19.209 7.645,-19.724 6.263,-19.98 4.732,-19.98 c -1.986,0 -3.824,0.496 -5.512,1.49 -1.688,0.992 -3.03,2.334 -4.022,4.022 -0.993,1.688 -1.49,3.526 -1.49,5.512 0,1.986 0.497,3.835 1.49,5.547 0.992,1.712 2.331,3.073 4.013,4.084 1.683,1.011 3.512,1.516 5.486,1.516 2.045,0 3.92,-0.523 5.627,-1.569 1.705,-1.046 3.049,-2.381 4.03,-4.005 0.982,-1.624 1.473,-3.254 1.473,-4.889 v -0.071 c 0,-0.315 -0.164,-0.472 -0.491,-0.472 H -5.328 Z"
             style="fill:none;stroke:#430307;stroke-width:0.5;stroke-linecap:butt;stroke-linejoin:miter;stroke-miterlimit:10;stroke-dasharray:none;stroke-opacity:1"
             id="path3947"
             inkscape:connector-curvature="0" /></g><g
           id="g3949"
           transform="translate(364.3145,124.4084)"><path
             d="m 0,0 h -0.018 c -0.304,0 -0.455,0.181 -0.455,0.543 v 20.384 c 0,0.374 0.151,0.56 0.455,0.56 H 0 c 0.304,0 0.456,-0.186 0.456,-0.56 l 0.035,-4.014 c 0.526,1.005 1.223,1.875 2.094,2.611 0.87,0.737 1.811,1.297 2.822,1.683 1.01,0.386 1.995,0.578 2.953,0.578 1.799,0 3.376,-0.432 4.732,-1.297 1.356,-0.865 2.396,-1.992 3.12,-3.383 0.725,-1.39 1.086,-2.85 1.086,-4.381 V 0.543 C 17.298,0.181 17.146,0 16.843,0 h -0.017 c -0.328,0 -0.492,0.181 -0.492,0.543 v 12.181 c 0,1.32 -0.33,2.605 -0.989,3.856 -0.661,1.25 -1.598,2.27 -2.814,3.059 -1.215,0.788 -2.617,1.182 -4.206,1.182 -1.121,0 -2.294,-0.315 -3.514,-0.946 C 3.59,19.244 2.564,18.333 1.735,17.141 0.905,15.949 0.491,14.553 0.491,12.952 V 0.543 C 0.491,0.181 0.327,0 0,0"
             style="fill:#430307;fill-opacity:1;fill-rule:nonzero;stroke:none"
             id="path3951"
             inkscape:connector-curvature="0" /></g><g
           id="g3953"
           transform="translate(364.3145,124.4084)"><path
             d="m 0,0 h -0.018 c -0.304,0 -0.455,0.181 -0.455,0.543 v 20.384 c 0,0.374 0.151,0.56 0.455,0.56 H 0 c 0.304,0 0.456,-0.186 0.456,-0.56 l 0.035,-4.014 c 0.526,1.005 1.223,1.875 2.094,2.611 0.87,0.737 1.811,1.297 2.822,1.683 1.01,0.386 1.995,0.578 2.953,0.578 1.799,0 3.376,-0.432 4.732,-1.297 1.356,-0.865 2.396,-1.992 3.12,-3.383 0.725,-1.39 1.086,-2.85 1.086,-4.381 V 0.543 C 17.298,0.181 17.146,0 16.843,0 h -0.017 c -0.328,0 -0.492,0.181 -0.492,0.543 v 12.181 c 0,1.32 -0.33,2.605 -0.989,3.856 -0.661,1.25 -1.598,2.27 -2.814,3.059 -1.215,0.788 -2.617,1.182 -4.206,1.182 -1.121,0 -2.294,-0.315 -3.514,-0.946 C 3.59,19.244 2.564,18.333 1.735,17.141 0.905,15.949 0.491,14.553 0.491,12.952 V 0.543 C 0.491,0.181 0.327,0 0,0 Z"
             style="fill:none;stroke:#430307;stroke-width:0.5;stroke-linecap:butt;stroke-linejoin:miter;stroke-miterlimit:10;stroke-dasharray:none;stroke-opacity:1"
             id="path3955"
             inkscape:connector-curvature="0" /></g><g
           id="g3957"
           transform="translate(395.7603,143.9855)"><path
             d="M 0,0 C 0.292,0 0.438,-0.146 0.438,-0.438 V -0.456 C 0.438,-0.561 0.397,-0.657 0.316,-0.745 0.233,-0.833 0.129,-0.877 0,-0.877 h -4.083 v -15.072 c 0,-0.713 0.189,-1.341 0.569,-1.885 0.38,-0.543 0.996,-0.814 1.849,-0.814 h 0.684 c 0.432,0 0.648,-0.135 0.648,-0.404 v -0.035 c 0,-0.082 -0.032,-0.184 -0.096,-0.307 -0.065,-0.122 -0.214,-0.183 -0.447,-0.183 -0.678,0 -1.157,0.022 -1.437,0.069 -0.888,0.141 -1.566,0.532 -2.034,1.175 -0.467,0.643 -0.701,1.413 -0.701,2.313 v 15.143 h -2.857 c -0.327,0 -0.49,0.147 -0.49,0.439 0,0.292 0.163,0.438 0.49,0.438 h 2.857 v 5.661 c 0,0.362 0.152,0.543 0.456,0.543 h 0.017 c 0.327,0 0.492,-0.181 0.492,-0.543 V 0 Z"
             style="fill:#430307;fill-opacity:1;fill-rule:nonzero;stroke:none"
             id="path3959"
             inkscape:connector-curvature="0" /></g><g
           id="g3961"
           transform="translate(395.7603,143.9855)"><path
             d="M 0,0 C 0.292,0 0.438,-0.146 0.438,-0.438 V -0.456 C 0.438,-0.561 0.397,-0.657 0.316,-0.745 0.233,-0.833 0.129,-0.877 0,-0.877 h -4.083 v -15.072 c 0,-0.713 0.189,-1.341 0.569,-1.885 0.38,-0.543 0.996,-0.814 1.849,-0.814 h 0.684 c 0.432,0 0.648,-0.135 0.648,-0.404 v -0.035 c 0,-0.082 -0.032,-0.184 -0.096,-0.307 -0.065,-0.122 -0.214,-0.183 -0.447,-0.183 -0.678,0 -1.157,0.022 -1.437,0.069 -0.888,0.141 -1.566,0.532 -2.034,1.175 -0.467,0.643 -0.701,1.413 -0.701,2.313 v 15.143 h -2.857 c -0.327,0 -0.49,0.147 -0.49,0.439 0,0.292 0.163,0.438 0.49,0.438 h 2.857 v 5.661 c 0,0.362 0.152,0.543 0.456,0.543 h 0.017 c 0.327,0 0.492,-0.181 0.492,-0.543 V 0 Z"
             style="fill:none;stroke:#430307;stroke-width:0.5;stroke-linecap:butt;stroke-linejoin:miter;stroke-miterlimit:10;stroke-dasharray:none;stroke-opacity:1"
             id="path3963"
             inkscape:connector-curvature="0" /></g><g
           id="g3965"
           transform="translate(422.1328,140.0334)"><path
             d="m 0,0 c -0.976,1.56 -2.249,2.801 -3.821,3.725 -1.572,0.922 -3.204,1.384 -4.899,1.384 -1.729,0 -3.367,-0.459 -4.916,-1.377 -1.548,-0.917 -2.793,-2.155 -3.733,-3.714 -0.941,-1.561 -1.411,-3.252 -1.411,-5.075 0,-1.799 0.47,-3.47 1.411,-5.012 0.94,-1.543 2.185,-2.773 3.733,-3.69 1.549,-0.918 3.187,-1.376 4.916,-1.376 1.811,0 3.499,0.456 5.066,1.367 1.565,0.912 2.81,2.139 3.732,3.681 0.924,1.542 1.386,3.219 1.386,5.03 C 1.464,-3.246 0.976,-1.561 0,0 M 1.954,-15.625 H 1.937 c -0.316,0 -0.473,0.192 -0.473,0.578 v 5.573 c -0.585,-1.285 -1.397,-2.429 -2.437,-3.434 -1.04,-1.006 -2.226,-1.788 -3.557,-2.349 -1.333,-0.561 -2.723,-0.842 -4.172,-0.842 -1.893,0 -3.69,0.499 -5.389,1.499 -1.701,0.999 -3.068,2.346 -4.102,4.039 -1.034,1.695 -1.551,3.529 -1.551,5.504 0,1.975 0.517,3.818 1.551,5.53 1.034,1.712 2.401,3.073 4.102,4.084 1.699,1.01 3.496,1.516 5.389,1.516 1.437,0 2.822,-0.284 4.154,-0.85 1.332,-0.568 2.521,-1.359 3.567,-2.375 1.045,-1.017 1.86,-2.173 2.445,-3.47 v 5.924 c 0,0.175 0.037,0.315 0.113,0.421 0.076,0.104 0.196,0.157 0.36,0.157 h 0.017 c 0.316,0 0.474,-0.193 0.474,-0.578 v -20.349 c 0,-0.386 -0.158,-0.578 -0.474,-0.578"
             style="fill:#430307;fill-opacity:1;fill-rule:nonzero;stroke:none"
             id="path3967"
             inkscape:connector-curvature="0" /></g><g
           id="g3969"
           transform="translate(422.1328,140.0334)"><path
             d="m 0,0 c -0.976,1.56 -2.249,2.801 -3.821,3.725 -1.572,0.922 -3.204,1.384 -4.899,1.384 -1.729,0 -3.367,-0.459 -4.916,-1.377 -1.548,-0.917 -2.793,-2.155 -3.733,-3.714 -0.941,-1.561 -1.411,-3.252 -1.411,-5.075 0,-1.799 0.47,-3.47 1.411,-5.012 0.94,-1.543 2.185,-2.773 3.733,-3.69 1.549,-0.918 3.187,-1.376 4.916,-1.376 1.811,0 3.499,0.456 5.066,1.367 1.565,0.912 2.81,2.139 3.732,3.681 0.924,1.542 1.386,3.219 1.386,5.03 C 1.464,-3.246 0.976,-1.561 0,0 Z M 1.954,-15.625 H 1.937 c -0.316,0 -0.473,0.192 -0.473,0.578 v 5.573 c -0.585,-1.285 -1.397,-2.429 -2.437,-3.434 -1.04,-1.006 -2.226,-1.788 -3.557,-2.349 -1.333,-0.561 -2.723,-0.842 -4.172,-0.842 -1.893,0 -3.69,0.499 -5.389,1.499 -1.701,0.999 -3.068,2.346 -4.102,4.039 -1.034,1.695 -1.551,3.529 -1.551,5.504 0,1.975 0.517,3.818 1.551,5.53 1.034,1.712 2.401,3.073 4.102,4.084 1.699,1.01 3.496,1.516 5.389,1.516 1.437,0 2.822,-0.284 4.154,-0.85 1.332,-0.568 2.521,-1.359 3.567,-2.375 1.045,-1.017 1.86,-2.173 2.445,-3.47 v 5.924 c 0,0.175 0.037,0.315 0.113,0.421 0.076,0.104 0.196,0.157 0.36,0.157 h 0.017 c 0.316,0 0.474,-0.193 0.474,-0.578 v -20.349 c 0,-0.386 -0.158,-0.578 -0.474,-0.578 z"
             style="fill:none;stroke:#430307;stroke-width:0.5;stroke-linecap:butt;stroke-linejoin:miter;stroke-miterlimit:10;stroke-dasharray:none;stroke-opacity:1"
             id="path3971"
             inkscape:connector-curvature="0" /></g><g
           id="g3973"
           transform="translate(450.0732,127.4934)"><path
             d="m 0,0 c 0.076,-0.094 0.114,-0.199 0.114,-0.316 0,-0.175 -0.076,-0.322 -0.227,-0.438 -2.162,-1.776 -4.505,-2.711 -7.029,-2.805 v -2.488 c 0.712,-0.117 1.308,-0.459 1.788,-1.025 0.479,-0.568 0.718,-1.207 0.718,-1.919 0,-0.538 -0.131,-1.035 -0.394,-1.49 -0.263,-0.457 -0.619,-0.819 -1.07,-1.087 -0.449,-0.269 -0.943,-0.404 -1.48,-0.404 -0.141,0 -0.258,0.047 -0.351,0.141 -0.093,0.094 -0.14,0.21 -0.14,0.351 0,0.128 0.047,0.236 0.14,0.324 0.093,0.087 0.204,0.131 0.333,0.131 0.573,0 1.052,0.199 1.438,0.596 0.386,0.398 0.578,0.876 0.578,1.438 0,0.502 -0.155,0.92 -0.465,1.252 -0.308,0.334 -0.722,0.57 -1.235,0.71 -0.035,0.011 -0.123,0.032 -0.263,0.062 -0.141,0.029 -0.254,0.075 -0.342,0.14 -0.088,0.064 -0.132,0.138 -0.132,0.219 v 3.067 c -1.927,0.094 -3.706,0.648 -5.336,1.665 -1.63,1.017 -2.924,2.357 -3.882,4.022 -0.958,1.666 -1.438,3.467 -1.438,5.408 0,2.056 0.52,3.931 1.561,5.626 1.039,1.693 2.41,3.023 4.109,3.987 1.7,0.964 3.49,1.446 5.372,1.446 1.238,0 2.535,-0.249 3.891,-0.745 1.355,-0.497 2.518,-1.183 3.488,-2.059 0.141,-0.118 0.21,-0.252 0.21,-0.404 0,-0.14 -0.041,-0.257 -0.122,-0.35 -0.082,-0.094 -0.199,-0.141 -0.351,-0.141 -0.117,0 -0.228,0.053 -0.333,0.158 -0.923,0.853 -1.972,1.496 -3.146,1.928 -1.174,0.433 -2.322,0.649 -3.443,0.649 -1.778,0 -3.454,-0.438 -5.031,-1.314 -1.577,-0.877 -2.845,-2.086 -3.803,-3.629 -0.958,-1.542 -1.438,-3.26 -1.438,-5.152 0,-1.824 0.462,-3.512 1.386,-5.066 0.923,-1.553 2.166,-2.79 3.732,-3.707 1.566,-0.918 3.26,-1.376 5.083,-1.376 1.425,0 2.682,0.229 3.768,0.684 1.087,0.456 2.097,1.087 3.032,1.892 0.129,0.106 0.263,0.159 0.403,0.159 C -0.178,0.14 -0.076,0.093 0,0"
             style="fill:#430307;fill-opacity:1;fill-rule:nonzero;stroke:none"
             id="path3975"
             inkscape:connector-curvature="0" /></g><g
           id="g3977"
           transform="translate(450.0732,127.4934)"><path
             d="m 0,0 c 0.076,-0.094 0.114,-0.199 0.114,-0.316 0,-0.175 -0.076,-0.322 -0.227,-0.438 -2.162,-1.776 -4.505,-2.711 -7.029,-2.805 v -2.488 c 0.712,-0.117 1.308,-0.459 1.788,-1.025 0.479,-0.568 0.718,-1.207 0.718,-1.919 0,-0.538 -0.131,-1.035 -0.394,-1.49 -0.263,-0.457 -0.619,-0.819 -1.07,-1.087 -0.449,-0.269 -0.943,-0.404 -1.48,-0.404 -0.141,0 -0.258,0.047 -0.351,0.141 -0.093,0.094 -0.14,0.21 -0.14,0.351 0,0.128 0.047,0.236 0.14,0.324 0.093,0.087 0.204,0.131 0.333,0.131 0.573,0 1.052,0.199 1.438,0.596 0.386,0.398 0.578,0.876 0.578,1.438 0,0.502 -0.155,0.92 -0.465,1.252 -0.308,0.334 -0.722,0.57 -1.235,0.71 -0.035,0.011 -0.123,0.032 -0.263,0.062 -0.141,0.029 -0.254,0.075 -0.342,0.14 -0.088,0.064 -0.132,0.138 -0.132,0.219 v 3.067 c -1.927,0.094 -3.706,0.648 -5.336,1.665 -1.63,1.017 -2.924,2.357 -3.882,4.022 -0.958,1.666 -1.438,3.467 -1.438,5.408 0,2.056 0.52,3.931 1.561,5.626 1.039,1.693 2.41,3.023 4.109,3.987 1.7,0.964 3.49,1.446 5.372,1.446 1.238,0 2.535,-0.249 3.891,-0.745 1.355,-0.497 2.518,-1.183 3.488,-2.059 0.141,-0.118 0.21,-0.252 0.21,-0.404 0,-0.14 -0.041,-0.257 -0.122,-0.35 -0.082,-0.094 -0.199,-0.141 -0.351,-0.141 -0.117,0 -0.228,0.053 -0.333,0.158 -0.923,0.853 -1.972,1.496 -3.146,1.928 -1.174,0.433 -2.322,0.649 -3.443,0.649 -1.778,0 -3.454,-0.438 -5.031,-1.314 -1.577,-0.877 -2.845,-2.086 -3.803,-3.629 -0.958,-1.542 -1.438,-3.26 -1.438,-5.152 0,-1.824 0.462,-3.512 1.386,-5.066 0.923,-1.553 2.166,-2.79 3.732,-3.707 1.566,-0.918 3.26,-1.376 5.083,-1.376 1.425,0 2.682,0.229 3.768,0.684 1.087,0.456 2.097,1.087 3.032,1.892 0.129,0.106 0.263,0.159 0.403,0.159 C -0.178,0.14 -0.076,0.093 0,0 Z"
             style="fill:none;stroke:#430307;stroke-width:0.5;stroke-linecap:butt;stroke-linejoin:miter;stroke-miterlimit:10;stroke-dasharray:none;stroke-opacity:1"
             id="path3979"
             inkscape:connector-curvature="0" /></g><g
           id="g3981"
           transform="translate(462.6514,149.1906)"><path
             d="m 0,0 c -0.07,-0.047 -0.152,-0.07 -0.245,-0.07 -0.07,0 -0.17,0.047 -0.298,0.14 l -0.035,0.035 c -0.094,0.094 -0.141,0.187 -0.141,0.281 0,0.117 0.064,0.239 0.193,0.368 0.444,0.514 0.859,0.888 1.245,1.122 0.385,0.233 0.823,0.351 1.314,0.351 0.291,0 0.572,-0.062 0.841,-0.185 C 3.143,1.919 3.488,1.735 3.908,1.49 4.317,1.245 4.659,1.061 4.934,0.937 5.208,0.815 5.492,0.754 5.783,0.754 c 0.27,0 0.509,0.076 0.719,0.227 0.211,0.153 0.444,0.369 0.701,0.649 0.164,0.176 0.301,0.307 0.412,0.394 0.112,0.088 0.22,0.132 0.324,0.132 0.129,0 0.231,-0.047 0.307,-0.14 C 8.322,1.922 8.36,1.829 8.36,1.735 8.36,1.584 8.296,1.432 8.167,1.279 7.782,0.777 7.382,0.403 6.967,0.158 6.552,-0.087 6.099,-0.21 5.608,-0.21 5.304,-0.21 5.01,-0.144 4.724,-0.009 4.437,0.126 4.106,0.315 3.733,0.562 3.348,0.795 3.034,0.97 2.796,1.087 2.556,1.203 2.302,1.262 2.033,1.262 1.647,1.262 1.337,1.184 1.104,1.025 0.87,0.868 0.59,0.602 0.263,0.228 0.158,0.123 0.07,0.047 0,0 m 12.628,-9.157 c -0.976,1.559 -2.249,2.801 -3.821,3.724 -1.572,0.923 -3.204,1.385 -4.899,1.385 -1.729,0 -3.368,-0.459 -4.916,-1.377 -1.548,-0.917 -2.793,-2.155 -3.733,-3.715 -0.941,-1.56 -1.411,-3.252 -1.411,-5.074 0,-1.8 0.47,-3.471 1.411,-5.013 0.94,-1.543 2.185,-2.772 3.733,-3.689 1.548,-0.918 3.187,-1.376 4.916,-1.376 1.811,0 3.499,0.456 5.066,1.367 1.565,0.911 2.809,2.139 3.732,3.681 0.924,1.542 1.386,3.219 1.386,5.03 0,1.811 -0.488,3.496 -1.464,5.057 m 1.954,-15.625 h -0.018 c -0.315,0 -0.472,0.192 -0.472,0.578 v 5.573 c -0.585,-1.285 -1.397,-2.43 -2.437,-3.434 -1.04,-1.006 -2.226,-1.789 -3.557,-2.349 -1.332,-0.562 -2.723,-0.842 -4.172,-0.842 -1.893,0 -3.69,0.499 -5.39,1.499 -1.699,0.999 -3.066,2.346 -4.101,4.039 -1.034,1.695 -1.551,3.529 -1.551,5.504 0,1.975 0.517,3.818 1.551,5.529 1.035,1.712 2.402,3.074 4.101,4.084 1.7,1.011 3.497,1.517 5.39,1.517 1.437,0 2.821,-0.284 4.154,-0.851 1.332,-0.567 2.521,-1.358 3.566,-2.375 1.046,-1.016 1.861,-2.172 2.446,-3.469 v 5.924 c 0,0.174 0.037,0.315 0.113,0.42 0.076,0.105 0.196,0.158 0.359,0.158 h 0.018 c 0.315,0 0.474,-0.193 0.474,-0.578 v -20.349 c 0,-0.386 -0.159,-0.578 -0.474,-0.578"
             style="fill:#430307;fill-opacity:1;fill-rule:nonzero;stroke:none"
             id="path3983"
             inkscape:connector-curvature="0" /></g><g
           id="g3985"
           transform="translate(462.6514,149.1906)"><path
             d="m 0,0 c -0.07,-0.047 -0.152,-0.07 -0.245,-0.07 -0.07,0 -0.17,0.047 -0.298,0.14 l -0.035,0.035 c -0.094,0.094 -0.141,0.187 -0.141,0.281 0,0.117 0.064,0.239 0.193,0.368 0.444,0.514 0.859,0.888 1.245,1.122 0.385,0.233 0.823,0.351 1.314,0.351 0.291,0 0.572,-0.062 0.841,-0.185 C 3.143,1.919 3.488,1.735 3.908,1.49 4.317,1.245 4.659,1.061 4.934,0.937 5.208,0.815 5.492,0.754 5.783,0.754 c 0.27,0 0.509,0.076 0.719,0.227 0.211,0.153 0.444,0.369 0.701,0.649 0.164,0.176 0.301,0.307 0.412,0.394 0.112,0.088 0.22,0.132 0.324,0.132 0.129,0 0.231,-0.047 0.307,-0.14 C 8.322,1.922 8.36,1.829 8.36,1.735 8.36,1.584 8.296,1.432 8.167,1.279 7.782,0.777 7.382,0.403 6.967,0.158 6.552,-0.087 6.099,-0.21 5.608,-0.21 5.304,-0.21 5.01,-0.144 4.724,-0.009 4.437,0.126 4.106,0.315 3.733,0.562 3.348,0.795 3.034,0.97 2.796,1.087 2.556,1.203 2.302,1.262 2.033,1.262 1.647,1.262 1.337,1.184 1.104,1.025 0.87,0.868 0.59,0.602 0.263,0.228 0.158,0.123 0.07,0.047 0,0 Z m 12.628,-9.157 c -0.976,1.559 -2.249,2.801 -3.821,3.724 -1.572,0.923 -3.204,1.385 -4.899,1.385 -1.729,0 -3.368,-0.459 -4.916,-1.377 -1.548,-0.917 -2.793,-2.155 -3.733,-3.715 -0.941,-1.56 -1.411,-3.252 -1.411,-5.074 0,-1.8 0.47,-3.471 1.411,-5.013 0.94,-1.543 2.185,-2.772 3.733,-3.689 1.548,-0.918 3.187,-1.376 4.916,-1.376 1.811,0 3.499,0.456 5.066,1.367 1.565,0.911 2.809,2.139 3.732,3.681 0.924,1.542 1.386,3.219 1.386,5.03 0,1.811 -0.488,3.496 -1.464,5.057 z m 1.954,-15.625 h -0.018 c -0.315,0 -0.472,0.192 -0.472,0.578 v 5.573 c -0.585,-1.285 -1.397,-2.43 -2.437,-3.434 -1.04,-1.006 -2.226,-1.789 -3.557,-2.349 -1.332,-0.562 -2.723,-0.842 -4.172,-0.842 -1.893,0 -3.69,0.499 -5.39,1.499 -1.699,0.999 -3.066,2.346 -4.101,4.039 -1.034,1.695 -1.551,3.529 -1.551,5.504 0,1.975 0.517,3.818 1.551,5.529 1.035,1.712 2.402,3.074 4.101,4.084 1.7,1.011 3.497,1.517 5.39,1.517 1.437,0 2.821,-0.284 4.154,-0.851 1.332,-0.567 2.521,-1.358 3.566,-2.375 1.046,-1.016 1.861,-2.172 2.446,-3.469 v 5.924 c 0,0.174 0.037,0.315 0.113,0.42 0.076,0.105 0.196,0.158 0.359,0.158 h 0.018 c 0.315,0 0.474,-0.193 0.474,-0.578 v -20.349 c 0,-0.386 -0.159,-0.578 -0.474,-0.578 z"
             style="fill:none;stroke:#430307;stroke-width:0.5;stroke-linecap:butt;stroke-linejoin:miter;stroke-miterlimit:10;stroke-dasharray:none;stroke-opacity:1"
             id="path3987"
             inkscape:connector-curvature="0" /></g><g
           id="g3989"
           transform="translate(487.1816,130.0168)"><path
             d="m 0,0 c 0.895,-1.566 2.105,-2.811 3.637,-3.733 1.531,-0.923 3.201,-1.385 5.012,-1.385 1.893,0 3.622,0.462 5.188,1.385 1.566,0.922 2.799,2.165 3.698,3.724 0.901,1.56 1.35,3.251 1.35,5.074 0,1.823 -0.464,3.505 -1.393,5.047 -0.93,1.543 -2.179,2.767 -3.752,3.673 -1.571,0.905 -3.279,1.358 -5.126,1.358 -1.811,0 -3.478,-0.451 -5.004,-1.35 C 2.085,12.894 0.879,11.673 -0.009,10.131 -0.896,8.588 -1.341,6.899 -1.341,5.065 -1.341,3.254 -0.895,1.565 0,0 m -0.842,10.604 c 0.976,1.694 2.3,3.035 3.971,4.022 1.67,0.987 3.499,1.481 5.485,1.481 2.01,0 3.876,-0.497 5.601,-1.49 1.723,-0.993 3.093,-2.334 4.109,-4.022 1.017,-1.689 1.525,-3.532 1.525,-5.53 0,-1.986 -0.508,-3.836 -1.525,-5.547 -1.016,-1.711 -2.384,-3.074 -4.101,-4.084 -1.717,-1.01 -3.576,-1.516 -5.574,-1.516 -1.974,0 -3.803,0.506 -5.485,1.516 -1.684,1.01 -3.015,2.373 -3.997,4.084 -0.981,1.711 -1.472,3.561 -1.472,5.547 0,1.998 0.488,3.844 1.463,5.539"
             style="fill:#430307;fill-opacity:1;fill-rule:nonzero;stroke:none"
             id="path3991"
             inkscape:connector-curvature="0" /></g><g
           id="g3993"
           transform="translate(487.1816,130.0168)"><path
             d="m 0,0 c 0.895,-1.566 2.105,-2.811 3.637,-3.733 1.531,-0.923 3.201,-1.385 5.012,-1.385 1.893,0 3.622,0.462 5.188,1.385 1.566,0.922 2.799,2.165 3.698,3.724 0.901,1.56 1.35,3.251 1.35,5.074 0,1.823 -0.464,3.505 -1.393,5.047 -0.93,1.543 -2.179,2.767 -3.752,3.673 -1.571,0.905 -3.279,1.358 -5.126,1.358 -1.811,0 -3.478,-0.451 -5.004,-1.35 C 2.085,12.894 0.879,11.673 -0.009,10.131 -0.896,8.588 -1.341,6.899 -1.341,5.065 -1.341,3.254 -0.895,1.565 0,0 Z m -0.842,10.604 c 0.976,1.694 2.3,3.035 3.971,4.022 1.67,0.987 3.499,1.481 5.485,1.481 2.01,0 3.876,-0.497 5.601,-1.49 1.723,-0.993 3.093,-2.334 4.109,-4.022 1.017,-1.689 1.525,-3.532 1.525,-5.53 0,-1.986 -0.508,-3.836 -1.525,-5.547 -1.016,-1.711 -2.384,-3.074 -4.101,-4.084 -1.717,-1.01 -3.576,-1.516 -5.574,-1.516 -1.974,0 -3.803,0.506 -5.485,1.516 -1.684,1.01 -3.015,2.373 -3.997,4.084 -0.981,1.711 -1.472,3.561 -1.472,5.547 0,1.998 0.488,3.844 1.463,5.539 z"
             style="fill:none;stroke:#430307;stroke-width:0.5;stroke-linecap:butt;stroke-linejoin:miter;stroke-miterlimit:10;stroke-dasharray:none;stroke-opacity:1"
             id="path3995"
             inkscape:connector-curvature="0" /></g><g
           id="g3997"
           transform="translate(530.0488,124.6887)"><path
             d="m 0,0 c -1.063,0.549 -1.858,1.247 -2.384,2.095 -0.525,0.846 -0.789,1.702 -0.789,2.567 0,0.28 0.094,0.456 0.281,0.525 l 0.053,0.018 c 0.069,0.024 0.128,0.035 0.175,0.035 0.14,0 0.257,-0.064 0.351,-0.193 C -2.221,4.919 -2.168,4.761 -2.156,4.574 -2.098,3.663 -1.8,2.871 -1.262,2.199 -0.725,1.527 -0.012,1.016 0.876,0.666 1.765,0.315 2.764,0.14 3.873,0.14 c 0.899,0 1.806,0.149 2.717,0.447 0.912,0.298 1.685,0.809 2.322,1.533 0.637,0.725 0.956,1.684 0.956,2.875 0,1.519 -0.547,2.679 -1.639,3.479 -1.093,0.8 -2.562,1.428 -4.408,1.884 -1.333,0.316 -2.463,0.69 -3.391,1.121 -0.93,0.433 -1.668,1.014 -2.217,1.745 -0.55,0.73 -0.825,1.65 -0.825,2.76 0,0.982 0.243,1.887 0.728,2.717 0.485,0.829 1.209,1.492 2.173,1.989 0.964,0.497 2.117,0.746 3.462,0.746 1.086,0 2.117,-0.244 3.094,-0.728 0.974,-0.485 1.775,-1.131 2.4,-1.937 0.625,-0.806 0.984,-1.671 1.078,-2.594 v -0.14 c 0,-0.234 -0.058,-0.375 -0.176,-0.421 -0.057,-0.035 -0.127,-0.053 -0.209,-0.053 -0.118,0 -0.226,0.036 -0.325,0.106 -0.099,0.07 -0.16,0.175 -0.183,0.315 -0.106,0.841 -0.439,1.607 -1,2.296 -0.561,0.69 -1.259,1.227 -2.094,1.613 -0.836,0.385 -1.697,0.578 -2.585,0.578 -1.04,0 -1.97,-0.19 -2.787,-0.57 -0.818,-0.38 -1.457,-0.909 -1.919,-1.586 -0.462,-0.677 -0.692,-1.455 -0.692,-2.331 0,-1.39 0.545,-2.433 1.638,-3.129 C 1.084,12.16 2.39,11.655 3.908,11.34 8.523,10.323 10.832,8.208 10.832,4.995 10.832,3.651 10.475,2.544 9.763,1.674 9.05,0.803 8.162,0.169 7.099,-0.228 6.035,-0.625 4.96,-0.824 3.873,-0.824 2.354,-0.824 1.063,-0.549 0,0"
             style="fill:#430307;fill-opacity:1;fill-rule:nonzero;stroke:none"
             id="path3999"
             inkscape:connector-curvature="0" /></g><g
           id="g4001"
           transform="translate(530.0488,124.6887)"><path
             d="m 0,0 c -1.063,0.549 -1.858,1.247 -2.384,2.095 -0.525,0.846 -0.789,1.702 -0.789,2.567 0,0.28 0.094,0.456 0.281,0.525 l 0.053,0.018 c 0.069,0.024 0.128,0.035 0.175,0.035 0.14,0 0.257,-0.064 0.351,-0.193 C -2.221,4.919 -2.168,4.761 -2.156,4.574 -2.098,3.663 -1.8,2.871 -1.262,2.199 -0.725,1.527 -0.012,1.016 0.876,0.666 1.765,0.315 2.764,0.14 3.873,0.14 c 0.899,0 1.806,0.149 2.717,0.447 0.912,0.298 1.685,0.809 2.322,1.533 0.637,0.725 0.956,1.684 0.956,2.875 0,1.519 -0.547,2.679 -1.639,3.479 -1.093,0.8 -2.562,1.428 -4.408,1.884 -1.333,0.316 -2.463,0.69 -3.391,1.121 -0.93,0.433 -1.668,1.014 -2.217,1.745 -0.55,0.73 -0.825,1.65 -0.825,2.76 0,0.982 0.243,1.887 0.728,2.717 0.485,0.829 1.209,1.492 2.173,1.989 0.964,0.497 2.117,0.746 3.462,0.746 1.086,0 2.117,-0.244 3.094,-0.728 0.974,-0.485 1.775,-1.131 2.4,-1.937 0.625,-0.806 0.984,-1.671 1.078,-2.594 v -0.14 c 0,-0.234 -0.058,-0.375 -0.176,-0.421 -0.057,-0.035 -0.127,-0.053 -0.209,-0.053 -0.118,0 -0.226,0.036 -0.325,0.106 -0.099,0.07 -0.16,0.175 -0.183,0.315 -0.106,0.841 -0.439,1.607 -1,2.296 -0.561,0.69 -1.259,1.227 -2.094,1.613 -0.836,0.385 -1.697,0.578 -2.585,0.578 -1.04,0 -1.97,-0.19 -2.787,-0.57 -0.818,-0.38 -1.457,-0.909 -1.919,-1.586 -0.462,-0.677 -0.692,-1.455 -0.692,-2.331 0,-1.39 0.545,-2.433 1.638,-3.129 C 1.084,12.16 2.39,11.655 3.908,11.34 8.523,10.323 10.832,8.208 10.832,4.995 10.832,3.651 10.475,2.544 9.763,1.674 9.05,0.803 8.162,0.169 7.099,-0.228 6.035,-0.625 4.96,-0.824 3.873,-0.824 2.354,-0.824 1.063,-0.549 0,0 Z"
             style="fill:none;stroke:#430307;stroke-width:0.5;stroke-linecap:butt;stroke-linejoin:miter;stroke-miterlimit:10;stroke-dasharray:none;stroke-opacity:1"
             id="path4003"
             inkscape:connector-curvature="0" /></g><g
           id="g4005"
           transform="translate(550.4785,130.0168)"><path
             d="m 0,0 c 0.895,-1.566 2.105,-2.811 3.637,-3.733 1.531,-0.923 3.201,-1.385 5.012,-1.385 1.893,0 3.622,0.462 5.188,1.385 1.566,0.922 2.799,2.165 3.698,3.724 0.901,1.56 1.35,3.251 1.35,5.074 0,1.823 -0.464,3.505 -1.393,5.047 -0.93,1.543 -2.179,2.767 -3.752,3.673 -1.57,0.905 -3.279,1.358 -5.126,1.358 -1.81,0 -3.478,-0.451 -5.004,-1.35 C 2.085,12.894 0.879,11.673 -0.009,10.131 -0.896,8.588 -1.341,6.899 -1.341,5.065 -1.341,3.254 -0.895,1.565 0,0 m -0.842,10.604 c 0.976,1.694 2.3,3.035 3.971,4.022 1.67,0.987 3.499,1.481 5.485,1.481 2.01,0 3.876,-0.497 5.601,-1.49 1.723,-0.993 3.093,-2.334 4.109,-4.022 1.017,-1.689 1.525,-3.532 1.525,-5.53 0,-1.986 -0.508,-3.836 -1.525,-5.547 -1.016,-1.711 -2.384,-3.074 -4.101,-4.084 -1.717,-1.01 -3.576,-1.516 -5.574,-1.516 -1.974,0 -3.803,0.506 -5.485,1.516 -1.684,1.01 -3.015,2.373 -3.997,4.084 -0.981,1.711 -1.472,3.561 -1.472,5.547 0,1.998 0.488,3.844 1.463,5.539"
             style="fill:#430307;fill-opacity:1;fill-rule:nonzero;stroke:none"
             id="path4007"
             inkscape:connector-curvature="0" /></g><g
           id="g4009"
           transform="translate(550.4785,130.0168)"><path
             d="m 0,0 c 0.895,-1.566 2.105,-2.811 3.637,-3.733 1.531,-0.923 3.201,-1.385 5.012,-1.385 1.893,0 3.622,0.462 5.188,1.385 1.566,0.922 2.799,2.165 3.698,3.724 0.901,1.56 1.35,3.251 1.35,5.074 0,1.823 -0.464,3.505 -1.393,5.047 -0.93,1.543 -2.179,2.767 -3.752,3.673 -1.57,0.905 -3.279,1.358 -5.126,1.358 -1.81,0 -3.478,-0.451 -5.004,-1.35 C 2.085,12.894 0.879,11.673 -0.009,10.131 -0.896,8.588 -1.341,6.899 -1.341,5.065 -1.341,3.254 -0.895,1.565 0,0 Z m -0.842,10.604 c 0.976,1.694 2.3,3.035 3.971,4.022 1.67,0.987 3.499,1.481 5.485,1.481 2.01,0 3.876,-0.497 5.601,-1.49 1.723,-0.993 3.093,-2.334 4.109,-4.022 1.017,-1.689 1.525,-3.532 1.525,-5.53 0,-1.986 -0.508,-3.836 -1.525,-5.547 -1.016,-1.711 -2.384,-3.074 -4.101,-4.084 -1.717,-1.01 -3.576,-1.516 -5.574,-1.516 -1.974,0 -3.803,0.506 -5.485,1.516 -1.684,1.01 -3.015,2.373 -3.997,4.084 -0.981,1.711 -1.472,3.561 -1.472,5.547 0,1.998 0.488,3.844 1.463,5.539 z"
             style="fill:none;stroke:#430307;stroke-width:0.5;stroke-linecap:butt;stroke-linejoin:miter;stroke-miterlimit:10;stroke-dasharray:none;stroke-opacity:1"
             id="path4011"
             inkscape:connector-curvature="0" /></g><g
           id="g4013"
           transform="translate(577.8047,151.9865)"><path
             d="M 0,0 C 0.076,0.11 0.195,0.167 0.36,0.167 H 0.377 C 0.541,0.167 0.66,0.11 0.736,0 0.812,-0.111 0.851,-0.254 0.851,-0.43 V -27 c 0,-0.175 -0.039,-0.315 -0.115,-0.421 -0.076,-0.104 -0.195,-0.157 -0.359,-0.157 H 0.36 c -0.165,0 -0.284,0.053 -0.36,0.157 -0.075,0.106 -0.114,0.246 -0.114,0.421 v 26.57 c 0,0.176 0.039,0.319 0.114,0.43"
             style="fill:#430307;fill-opacity:1;fill-rule:nonzero;stroke:none"
             id="path4015"
             inkscape:connector-curvature="0" /></g><g
           id="g4017"
           transform="translate(577.8047,151.9865)"><path
             d="M 0,0 C 0.076,0.11 0.195,0.167 0.36,0.167 H 0.377 C 0.541,0.167 0.66,0.11 0.736,0 0.812,-0.111 0.851,-0.254 0.851,-0.43 V -27 c 0,-0.175 -0.039,-0.315 -0.115,-0.421 -0.076,-0.104 -0.195,-0.157 -0.359,-0.157 H 0.36 c -0.165,0 -0.284,0.053 -0.36,0.157 -0.075,0.106 -0.114,0.246 -0.114,0.421 v 26.57 c 0,0.176 0.039,0.319 0.114,0.43 z"
             style="fill:none;stroke:#430307;stroke-width:0.5;stroke-linecap:butt;stroke-linejoin:miter;stroke-miterlimit:10;stroke-dasharray:none;stroke-opacity:1"
             id="path4019"
             inkscape:connector-curvature="0" /></g><g
           id="g4021"
           transform="translate(589.0859,145.8957)"><path
             d="m 0,0 h 0.018 c 0.315,0 0.473,-0.181 0.473,-0.543 v -20.384 c 0,-0.374 -0.158,-0.56 -0.473,-0.56 H 0 c -0.164,0 -0.286,0.049 -0.367,0.148 -0.083,0.099 -0.124,0.236 -0.124,0.412 V -0.543 C -0.491,-0.181 -0.327,0 0,0 m -0.455,5.907 h 0.858 c 0.222,0 0.333,-0.129 0.333,-0.386 V 4.75 C 0.736,4.493 0.625,4.364 0.403,4.364 h -0.841 c -0.14,0 -0.237,0.03 -0.29,0.088 -0.051,0.058 -0.078,0.157 -0.078,0.298 v 0.807 c 0,0.233 0.117,0.35 0.351,0.35"
             style="fill:#430307;fill-opacity:1;fill-rule:nonzero;stroke:none"
             id="path4023"
             inkscape:connector-curvature="0" /></g><g
           id="g4025"
           transform="translate(589.0859,145.8957)"><path
             d="m 0,0 h 0.018 c 0.315,0 0.473,-0.181 0.473,-0.543 v -20.384 c 0,-0.374 -0.158,-0.56 -0.473,-0.56 H 0 c -0.164,0 -0.286,0.049 -0.367,0.148 -0.083,0.099 -0.124,0.236 -0.124,0.412 V -0.543 C -0.491,-0.181 -0.327,0 0,0 Z m -0.455,5.907 h 0.858 c 0.222,0 0.333,-0.129 0.333,-0.386 V 4.75 C 0.736,4.493 0.625,4.364 0.403,4.364 h -0.841 c -0.14,0 -0.237,0.03 -0.29,0.088 -0.051,0.058 -0.078,0.157 -0.078,0.298 v 0.807 c 0,0.233 0.117,0.35 0.351,0.35 z"
             style="fill:none;stroke:#430307;stroke-width:0.5;stroke-linecap:butt;stroke-linejoin:miter;stroke-miterlimit:10;stroke-dasharray:none;stroke-opacity:1"
             id="path4027"
             inkscape:connector-curvature="0" /></g><g
           id="g4029"
           transform="translate(618.3066,140.0686)"><path
             d="m 0,0 c -0.9,1.56 -2.118,2.795 -3.655,3.707 -1.536,0.911 -3.216,1.367 -5.038,1.367 -1.8,0 -3.48,-0.459 -5.039,-1.377 -1.56,-0.917 -2.805,-2.152 -3.734,-3.706 -0.93,-1.554 -1.393,-3.249 -1.393,-5.083 0,-1.823 0.456,-3.505 1.367,-5.048 0.911,-1.542 2.156,-2.766 3.733,-3.672 1.577,-0.905 3.318,-1.358 5.223,-1.358 1.718,0 3.336,0.456 4.855,1.367 1.519,0.911 2.737,2.142 3.654,3.69 0.918,1.549 1.377,3.221 1.377,5.021 C 1.35,-3.258 0.899,-1.561 0,0 M 2.19,-15.512 C 2.108,-15.611 1.986,-15.66 1.822,-15.66 H 1.805 c -0.305,0 -0.455,0.186 -0.455,0.56 v 5.626 c -0.574,-1.297 -1.369,-2.448 -2.385,-3.452 -1.017,-1.005 -2.173,-1.791 -3.47,-2.358 -1.297,-0.567 -2.635,-0.85 -4.014,-0.85 -2.103,0 -4.016,0.496 -5.74,1.49 -1.723,0.993 -3.082,2.334 -4.075,4.023 -0.993,1.687 -1.489,3.531 -1.489,5.529 0,1.998 0.5,3.85 1.499,5.556 0.998,1.706 2.354,3.061 4.065,4.066 1.712,1.005 3.572,1.508 5.583,1.508 1.46,0 2.851,-0.281 4.171,-0.842 1.32,-0.56 2.485,-1.346 3.497,-2.357 1.011,-1.011 1.796,-2.17 2.358,-3.48 v 12.164 c 0,0.374 0.15,0.562 0.455,0.562 h 0.017 c 0.164,0 0.286,-0.051 0.368,-0.149 0.082,-0.1 0.123,-0.238 0.123,-0.413 V -15.1 c 0,-0.175 -0.041,-0.313 -0.123,-0.412"
             style="fill:#430307;fill-opacity:1;fill-rule:nonzero;stroke:none"
             id="path4031"
             inkscape:connector-curvature="0" /></g><g
           id="g4033"
           transform="translate(618.3066,140.0686)"><path
             d="m 0,0 c -0.9,1.56 -2.118,2.795 -3.655,3.707 -1.536,0.911 -3.216,1.367 -5.038,1.367 -1.8,0 -3.48,-0.459 -5.039,-1.377 -1.56,-0.917 -2.805,-2.152 -3.734,-3.706 -0.93,-1.554 -1.393,-3.249 -1.393,-5.083 0,-1.823 0.456,-3.505 1.367,-5.048 0.911,-1.542 2.156,-2.766 3.733,-3.672 1.577,-0.905 3.318,-1.358 5.223,-1.358 1.718,0 3.336,0.456 4.855,1.367 1.519,0.911 2.737,2.142 3.654,3.69 0.918,1.549 1.377,3.221 1.377,5.021 C 1.35,-3.258 0.899,-1.561 0,0 Z M 2.19,-15.512 C 2.108,-15.611 1.986,-15.66 1.822,-15.66 H 1.805 c -0.305,0 -0.455,0.186 -0.455,0.56 v 5.626 c -0.574,-1.297 -1.369,-2.448 -2.385,-3.452 -1.017,-1.005 -2.173,-1.791 -3.47,-2.358 -1.297,-0.567 -2.635,-0.85 -4.014,-0.85 -2.103,0 -4.016,0.496 -5.74,1.49 -1.723,0.993 -3.082,2.334 -4.075,4.023 -0.993,1.687 -1.489,3.531 -1.489,5.529 0,1.998 0.5,3.85 1.499,5.556 0.998,1.706 2.354,3.061 4.065,4.066 1.712,1.005 3.572,1.508 5.583,1.508 1.46,0 2.851,-0.281 4.171,-0.842 1.32,-0.56 2.485,-1.346 3.497,-2.357 1.011,-1.011 1.796,-2.17 2.358,-3.48 v 12.164 c 0,0.374 0.15,0.562 0.455,0.562 h 0.017 c 0.164,0 0.286,-0.051 0.368,-0.149 0.082,-0.1 0.123,-0.238 0.123,-0.413 V -15.1 c 0,-0.175 -0.041,-0.313 -0.123,-0.412 z"
             style="fill:none;stroke:#430307;stroke-width:0.5;stroke-linecap:butt;stroke-linejoin:miter;stroke-miterlimit:10;stroke-dasharray:none;stroke-opacity:1"
             id="path4035"
             inkscape:connector-curvature="0" /></g><g
           id="g4037"
           transform="translate(640.708,149.4543)"><path
             d="m 0,0 h -0.035 c -0.117,0.011 -0.226,0.055 -0.324,0.131 -0.1,0.076 -0.15,0.178 -0.15,0.306 0,0.094 0.03,0.2 0.088,0.316 l 2.243,4.014 c 0.081,0.151 0.155,0.248 0.219,0.289 0.064,0.041 0.138,0.061 0.22,0.061 H 2.295 C 2.412,5.105 2.521,5.056 2.62,4.969 2.719,4.881 2.77,4.772 2.77,4.645 2.77,4.539 2.739,4.439 2.682,4.346 L 0.455,0.351 C 0.315,0.116 0.163,0 0,0 m 7.124,-9.421 c -0.976,1.56 -2.249,2.801 -3.821,3.725 -1.572,0.923 -3.204,1.384 -4.899,1.384 -1.729,0 -3.367,-0.459 -4.916,-1.376 -1.548,-0.917 -2.793,-2.156 -3.732,-3.715 -0.942,-1.561 -1.411,-3.252 -1.411,-5.075 0,-1.799 0.469,-3.47 1.411,-5.012 0.939,-1.543 2.184,-2.773 3.732,-3.69 1.549,-0.918 3.187,-1.376 4.916,-1.376 1.812,0 3.499,0.456 5.066,1.368 1.565,0.911 2.81,2.138 3.733,3.68 0.923,1.542 1.385,3.219 1.385,5.03 0,1.811 -0.488,3.497 -1.464,5.057 M 9.079,-25.046 H 9.061 c -0.316,0 -0.473,0.192 -0.473,0.578 v 5.573 c -0.585,-1.285 -1.397,-2.429 -2.437,-3.434 -1.04,-1.006 -2.225,-1.788 -3.557,-2.349 -1.332,-0.561 -2.723,-0.842 -4.172,-0.842 -1.893,0 -3.69,0.499 -5.389,1.499 -1.7,1 -3.067,2.346 -4.101,4.04 -1.035,1.694 -1.551,3.528 -1.551,5.503 0,1.975 0.516,3.818 1.551,5.53 1.034,1.712 2.401,3.073 4.101,4.084 1.699,1.01 3.496,1.516 5.389,1.516 1.437,0 2.822,-0.284 4.154,-0.85 1.332,-0.568 2.521,-1.359 3.567,-2.375 1.045,-1.017 1.86,-2.173 2.445,-3.47 v 5.924 c 0,0.175 0.037,0.315 0.113,0.421 0.076,0.104 0.196,0.157 0.36,0.157 h 0.018 c 0.315,0 0.473,-0.192 0.473,-0.578 v -20.349 c 0,-0.386 -0.158,-0.578 -0.473,-0.578"
             style="fill:#430307;fill-opacity:1;fill-rule:nonzero;stroke:none"
             id="path4039"
             inkscape:connector-curvature="0" /></g><g
           id="g4041"
           transform="translate(640.708,149.4543)"><path
             d="m 0,0 h -0.035 c -0.117,0.011 -0.226,0.055 -0.324,0.131 -0.1,0.076 -0.15,0.178 -0.15,0.306 0,0.094 0.03,0.2 0.088,0.316 l 2.243,4.014 c 0.081,0.151 0.155,0.248 0.219,0.289 0.064,0.041 0.138,0.061 0.22,0.061 H 2.295 C 2.412,5.105 2.521,5.056 2.62,4.969 2.719,4.881 2.77,4.772 2.77,4.645 2.77,4.539 2.739,4.439 2.682,4.346 L 0.455,0.351 C 0.315,0.116 0.163,0 0,0 Z m 7.124,-9.421 c -0.976,1.56 -2.249,2.801 -3.821,3.725 -1.572,0.923 -3.204,1.384 -4.899,1.384 -1.729,0 -3.367,-0.459 -4.916,-1.376 -1.548,-0.917 -2.793,-2.156 -3.732,-3.715 -0.942,-1.561 -1.411,-3.252 -1.411,-5.075 0,-1.799 0.469,-3.47 1.411,-5.012 0.939,-1.543 2.184,-2.773 3.732,-3.69 1.549,-0.918 3.187,-1.376 4.916,-1.376 1.812,0 3.499,0.456 5.066,1.368 1.565,0.911 2.81,2.138 3.733,3.68 0.923,1.542 1.385,3.219 1.385,5.03 0,1.811 -0.488,3.497 -1.464,5.057 z M 9.079,-25.046 H 9.061 c -0.316,0 -0.473,0.192 -0.473,0.578 v 5.573 c -0.585,-1.285 -1.397,-2.429 -2.437,-3.434 -1.04,-1.006 -2.225,-1.788 -3.557,-2.349 -1.332,-0.561 -2.723,-0.842 -4.172,-0.842 -1.893,0 -3.69,0.499 -5.389,1.499 -1.7,1 -3.067,2.346 -4.101,4.04 -1.035,1.694 -1.551,3.528 -1.551,5.503 0,1.975 0.516,3.818 1.551,5.53 1.034,1.712 2.401,3.073 4.101,4.084 1.699,1.01 3.496,1.516 5.389,1.516 1.437,0 2.822,-0.284 4.154,-0.85 1.332,-0.568 2.521,-1.359 3.567,-2.375 1.045,-1.017 1.86,-2.173 2.445,-3.47 v 5.924 c 0,0.175 0.037,0.315 0.113,0.421 0.076,0.104 0.196,0.157 0.36,0.157 h 0.018 c 0.315,0 0.473,-0.192 0.473,-0.578 v -20.349 c 0,-0.386 -0.158,-0.578 -0.473,-0.578 z"
             style="fill:none;stroke:#430307;stroke-width:0.5;stroke-linecap:butt;stroke-linejoin:miter;stroke-miterlimit:10;stroke-dasharray:none;stroke-opacity:1"
             id="path4043"
             inkscape:connector-curvature="0" /></g><g
           id="g4045"
           transform="translate(658.9551,145.8957)"><path
             d="m 0,0 h 0.018 c 0.303,0 0.456,-0.181 0.456,-0.543 v -4.47 c 0.42,1.04 1.063,1.917 1.927,2.629 0.865,0.713 1.811,1.241 2.839,1.587 1.029,0.344 2.023,0.517 2.98,0.517 0.806,0 1.659,-0.161 2.559,-0.483 0.9,-0.321 1.661,-0.698 2.287,-1.13 0.625,-0.432 0.938,-0.789 0.938,-1.069 0,-0.094 -0.024,-0.164 -0.069,-0.21 l -0.019,-0.017 c -0.104,-0.129 -0.233,-0.194 -0.385,-0.194 -0.129,0 -0.252,0.053 -0.369,0.158 -1.589,1.321 -3.219,1.981 -4.89,1.981 -1.203,0 -2.4,-0.283 -3.592,-0.85 -1.192,-0.567 -2.188,-1.478 -2.989,-2.734 -0.8,-1.257 -1.2,-2.849 -1.2,-4.776 v -11.323 c 0,-0.374 -0.158,-0.56 -0.473,-0.56 H 0 c -0.315,0 -0.473,0.186 -0.473,0.56 V -0.543 C -0.473,-0.181 -0.315,0 0,0"
             style="fill:#430307;fill-opacity:1;fill-rule:nonzero;stroke:none"
             id="path4047"
             inkscape:connector-curvature="0" /></g><g
           id="g4049"
           transform="translate(658.9551,145.8957)"><path
             d="m 0,0 h 0.018 c 0.303,0 0.456,-0.181 0.456,-0.543 v -4.47 c 0.42,1.04 1.063,1.917 1.927,2.629 0.865,0.713 1.811,1.241 2.839,1.587 1.029,0.344 2.023,0.517 2.98,0.517 0.806,0 1.659,-0.161 2.559,-0.483 0.9,-0.321 1.661,-0.698 2.287,-1.13 0.625,-0.432 0.938,-0.789 0.938,-1.069 0,-0.094 -0.024,-0.164 -0.069,-0.21 l -0.019,-0.017 c -0.104,-0.129 -0.233,-0.194 -0.385,-0.194 -0.129,0 -0.252,0.053 -0.369,0.158 -1.589,1.321 -3.219,1.981 -4.89,1.981 -1.203,0 -2.4,-0.283 -3.592,-0.85 -1.192,-0.567 -2.188,-1.478 -2.989,-2.734 -0.8,-1.257 -1.2,-2.849 -1.2,-4.776 v -11.323 c 0,-0.374 -0.158,-0.56 -0.473,-0.56 H 0 c -0.315,0 -0.473,0.186 -0.473,0.56 V -0.543 C -0.473,-0.181 -0.315,0 0,0 Z"
             style="fill:none;stroke:#430307;stroke-width:0.5;stroke-linecap:butt;stroke-linejoin:miter;stroke-miterlimit:10;stroke-dasharray:none;stroke-opacity:1"
             id="path4051"
             inkscape:connector-curvature="0" /></g><g
           id="g4053"
           transform="translate(680.7422,145.8957)"><path
             d="m 0,0 h 0.019 c 0.315,0 0.472,-0.181 0.472,-0.543 v -20.384 c 0,-0.374 -0.157,-0.56 -0.472,-0.56 H 0 c -0.163,0 -0.286,0.049 -0.367,0.148 -0.082,0.099 -0.123,0.236 -0.123,0.412 V -0.543 C -0.49,-0.181 -0.327,0 0,0 m -0.455,5.907 h 0.858 c 0.223,0 0.333,-0.129 0.333,-0.386 V 4.75 c 0,-0.257 -0.11,-0.386 -0.333,-0.386 h -0.84 c -0.141,0 -0.237,0.03 -0.29,0.088 -0.052,0.058 -0.079,0.157 -0.079,0.298 v 0.807 c 0,0.233 0.118,0.35 0.351,0.35"
             style="fill:#430307;fill-opacity:1;fill-rule:nonzero;stroke:none"
             id="path4055"
             inkscape:connector-curvature="0" /></g><g
           id="g4057"
           transform="translate(680.7422,145.8957)"><path
             d="m 0,0 h 0.019 c 0.315,0 0.472,-0.181 0.472,-0.543 v -20.384 c 0,-0.374 -0.157,-0.56 -0.472,-0.56 H 0 c -0.163,0 -0.286,0.049 -0.367,0.148 -0.082,0.099 -0.123,0.236 -0.123,0.412 V -0.543 C -0.49,-0.181 -0.327,0 0,0 Z m -0.455,5.907 h 0.858 c 0.223,0 0.333,-0.129 0.333,-0.386 V 4.75 c 0,-0.257 -0.11,-0.386 -0.333,-0.386 h -0.84 c -0.141,0 -0.237,0.03 -0.29,0.088 -0.052,0.058 -0.079,0.157 -0.079,0.298 v 0.807 c 0,0.233 0.118,0.35 0.351,0.35 z"
             style="fill:none;stroke:#430307;stroke-width:0.5;stroke-linecap:butt;stroke-linejoin:miter;stroke-miterlimit:10;stroke-dasharray:none;stroke-opacity:1"
             id="path4059"
             inkscape:connector-curvature="0" /></g><g
           id="g4061"
           transform="translate(709.8486,140.0334)"><path
             d="m 0,0 c -0.976,1.56 -2.249,2.801 -3.821,3.725 -1.572,0.922 -3.204,1.384 -4.899,1.384 -1.729,0 -3.367,-0.459 -4.916,-1.377 -1.548,-0.917 -2.793,-2.155 -3.732,-3.714 -0.942,-1.561 -1.411,-3.252 -1.411,-5.075 0,-1.799 0.469,-3.47 1.411,-5.012 0.939,-1.543 2.184,-2.773 3.732,-3.69 1.549,-0.918 3.187,-1.376 4.916,-1.376 1.812,0 3.499,0.456 5.066,1.367 1.565,0.912 2.81,2.139 3.733,3.681 0.923,1.542 1.385,3.219 1.385,5.03 C 1.464,-3.246 0.976,-1.561 0,0 M 1.955,-15.625 H 1.937 c -0.316,0 -0.473,0.192 -0.473,0.578 v 5.573 c -0.585,-1.285 -1.397,-2.429 -2.437,-3.434 -1.04,-1.006 -2.225,-1.788 -3.557,-2.349 -1.332,-0.561 -2.723,-0.842 -4.172,-0.842 -1.893,0 -3.69,0.499 -5.389,1.499 -1.7,0.999 -3.067,2.346 -4.101,4.039 -1.035,1.695 -1.551,3.529 -1.551,5.504 0,1.975 0.516,3.818 1.551,5.53 1.034,1.712 2.401,3.073 4.101,4.084 1.699,1.01 3.496,1.516 5.389,1.516 1.437,0 2.822,-0.284 4.154,-0.85 1.332,-0.568 2.521,-1.359 3.567,-2.375 1.045,-1.017 1.86,-2.173 2.445,-3.47 v 5.924 c 0,0.175 0.038,0.315 0.113,0.421 0.076,0.104 0.196,0.157 0.36,0.157 h 0.018 c 0.315,0 0.473,-0.193 0.473,-0.578 v -20.349 c 0,-0.386 -0.158,-0.578 -0.473,-0.578"
             style="fill:#430307;fill-opacity:1;fill-rule:nonzero;stroke:none"
             id="path4063"
             inkscape:connector-curvature="0" /></g><g
           id="g4065"
           transform="translate(709.8486,140.0334)"><path
             d="m 0,0 c -0.976,1.56 -2.249,2.801 -3.821,3.725 -1.572,0.922 -3.204,1.384 -4.899,1.384 -1.729,0 -3.367,-0.459 -4.916,-1.377 -1.548,-0.917 -2.793,-2.155 -3.732,-3.714 -0.942,-1.561 -1.411,-3.252 -1.411,-5.075 0,-1.799 0.469,-3.47 1.411,-5.012 0.939,-1.543 2.184,-2.773 3.732,-3.69 1.549,-0.918 3.187,-1.376 4.916,-1.376 1.812,0 3.499,0.456 5.066,1.367 1.565,0.912 2.81,2.139 3.733,3.681 0.923,1.542 1.385,3.219 1.385,5.03 C 1.464,-3.246 0.976,-1.561 0,0 Z M 1.955,-15.625 H 1.937 c -0.316,0 -0.473,0.192 -0.473,0.578 v 5.573 c -0.585,-1.285 -1.397,-2.429 -2.437,-3.434 -1.04,-1.006 -2.225,-1.788 -3.557,-2.349 -1.332,-0.561 -2.723,-0.842 -4.172,-0.842 -1.893,0 -3.69,0.499 -5.389,1.499 -1.7,0.999 -3.067,2.346 -4.101,4.039 -1.035,1.695 -1.551,3.529 -1.551,5.504 0,1.975 0.516,3.818 1.551,5.53 1.034,1.712 2.401,3.073 4.101,4.084 1.699,1.01 3.496,1.516 5.389,1.516 1.437,0 2.822,-0.284 4.154,-0.85 1.332,-0.568 2.521,-1.359 3.567,-2.375 1.045,-1.017 1.86,-2.173 2.445,-3.47 v 5.924 c 0,0.175 0.038,0.315 0.113,0.421 0.076,0.104 0.196,0.157 0.36,0.157 h 0.018 c 0.315,0 0.473,-0.193 0.473,-0.578 v -20.349 c 0,-0.386 -0.158,-0.578 -0.473,-0.578 z"
             style="fill:none;stroke:#430307;stroke-width:0.5;stroke-linecap:butt;stroke-linejoin:miter;stroke-miterlimit:10;stroke-dasharray:none;stroke-opacity:1"
             id="path4067"
             inkscape:connector-curvature="0" /></g></g></g></g></svg>