<svg width="51" height="50" viewBox="0 0 51 50" fill="none" xmlns="http://www.w3.org/2000/svg">
<g id="icon/action/search_24px">
<path id="icon/action/search_24px_2" fill-rule="evenodd" clip-rule="evenodd" d="M31.9935 29.6979H33.6393L44.0352 40.1146L40.931 43.2188L30.5143 32.8229V31.1771L29.9518 30.5938C27.5768 32.6354 24.4935 33.8646 21.1393 33.8646C13.6602 33.8646 7.59766 27.8021 7.59766 20.3229C7.59766 12.8438 13.6602 6.78125 21.1393 6.78125C28.6185 6.78125 34.681 12.8438 34.681 20.3229C34.681 23.6771 33.4518 26.7604 31.4102 29.1354L31.9935 29.6979ZM11.7645 20.3228C11.7645 25.5103 15.952 29.6978 21.1395 29.6978C26.327 29.6978 30.5145 25.5103 30.5145 20.3228C30.5145 15.1353 26.327 10.9478 21.1395 10.9478C15.952 10.9478 11.7645 15.1353 11.7645 20.3228Z" fill="#B76882"/>
</g>
</svg>
