<svg width="50" height="51" viewBox="0 0 50 51" fill="none" xmlns="http://www.w3.org/2000/svg">
<g id="icon/action/schedule_24px">
<path id="icon/action/schedule_24px_2" fill-rule="evenodd" clip-rule="evenodd" d="M24.9795 4.1665C13.4795 4.1665 4.16699 13.4998 4.16699 24.9998C4.16699 36.4998 13.4795 45.8332 24.9795 45.8332C36.5003 45.8332 45.8337 36.4998 45.8337 24.9998C45.8337 13.4998 36.5003 4.1665 24.9795 4.1665ZM25.0003 41.6665C15.792 41.6665 8.33366 34.2082 8.33366 24.9998C8.33366 15.7915 15.792 8.33317 25.0003 8.33317C34.2087 8.33317 41.667 15.7915 41.667 24.9998C41.667 34.2082 34.2087 41.6665 25.0003 41.6665ZM22.917 14.5832H26.042V25.5207L35.417 31.0832L33.8545 33.6457L22.917 27.0832V14.5832Z" fill="#B76882"/>
</g>
</svg>
