<svg width="18" height="19" viewBox="0 0 18 19" fill="none" xmlns="http://www.w3.org/2000/svg">
<path d="M11.2985 9.12405H9.84486C9.84486 11.5068 9.84486 14.4398 9.84486 14.4398H7.69089C7.69089 14.4398 7.69089 11.5353 7.69089 9.12405H6.66699V7.2453H7.69089V6.03009C7.69089 5.15976 8.09398 3.7998 9.86466 3.7998L11.4608 3.80608V5.62982C11.4608 5.62982 10.4909 5.62982 10.3023 5.62982C10.1137 5.62982 9.84558 5.72656 9.84558 6.1416V7.24567H11.4867L11.2985 9.12405Z" fill="#430307"/>
<mask id="mask0" mask-type="alpha" maskUnits="userSpaceOnUse" x="6" y="3" width="6" height="12">
<path d="M11.2985 9.12405H9.84486C9.84486 11.5068 9.84486 14.4398 9.84486 14.4398H7.69089C7.69089 14.4398 7.69089 11.5353 7.69089 9.12405H6.66699V7.2453H7.69089V6.03009C7.69089 5.15976 8.09398 3.7998 9.86466 3.7998L11.4608 3.80608V5.62982C11.4608 5.62982 10.4909 5.62982 10.3023 5.62982C10.1137 5.62982 9.84558 5.72656 9.84558 6.1416V7.24567H11.4867L11.2985 9.12405Z" fill="white"/>
</mask>
<g mask="url(#mask0)">
<g filter="url(#filter0_d)">
<rect width="17.7778" height="18.24" fill="#430307"/>
</g>
</g>
<defs>
<filter id="filter0_d" x="-4" y="0" width="25.7778" height="26.24" filterUnits="userSpaceOnUse" color-interpolation-filters="sRGB">
<feFlood flood-opacity="0" result="BackgroundImageFix"/>
<feColorMatrix in="SourceAlpha" type="matrix" values="0 0 0 0 0 0 0 0 0 0 0 0 0 0 0 0 0 0 127 0"/>
<feOffset dy="4"/>
<feGaussianBlur stdDeviation="2"/>
<feColorMatrix type="matrix" values="0 0 0 0 0 0 0 0 0 0 0 0 0 0 0 0 0 0 0.25 0"/>
<feBlend mode="normal" in2="BackgroundImageFix" result="effect1_dropShadow"/>
<feBlend mode="normal" in="SourceGraphic" in2="effect1_dropShadow" result="shape"/>
</filter>
</defs>
</svg>
