<svg width="18" height="19" viewBox="0 0 18 19" fill="none" xmlns="http://www.w3.org/2000/svg">
<path fill-rule="evenodd" clip-rule="evenodd" d="M14.2958 13.1433V8.7877V6.61592C14.2958 5.4818 13.3968 4.55981 12.2914 4.55981H5.92979C4.82441 4.55981 3.92578 5.4818 3.92578 6.61592V8.7877V13.1433C3.92578 14.2778 4.82441 15.1998 5.92979 15.1998H12.2918C13.3968 15.1998 14.2958 14.2778 14.2958 13.1433ZM10.9363 9.87925C10.9363 10.912 10.1163 11.7519 9.11045 11.7519C8.10423 11.7519 7.28492 10.9116 7.28603 9.87888C7.28639 9.4712 7.41529 9.09479 7.63123 8.78733C7.96358 8.3156 8.50231 8.00664 9.11156 8.00664C9.72043 8.00664 10.2595 8.31598 10.5911 8.78771C10.8063 9.09517 10.9363 9.47157 10.9363 9.87925ZM13.0961 7.58842V6.01874V5.78513L12.8673 5.78588L11.3381 5.79078L11.344 7.59445L13.0961 7.58842ZM9.1108 12.7892C10.6749 12.7892 11.947 11.4832 11.947 9.87926C11.947 9.49343 11.8709 9.12456 11.7362 8.78772H13.2848V13.1433C13.2848 13.7063 12.8386 14.1622 12.2911 14.1622H5.92944C5.38116 14.1622 4.9357 13.7063 4.9357 13.1433V8.78772H6.4836C6.34993 9.12456 6.27501 9.49343 6.27501 9.87926C6.27501 11.4832 7.54675 12.7892 9.1108 12.7892Z" fill="#430307"/>
<mask id="mask0" mask-type="alpha" maskUnits="userSpaceOnUse" x="3" y="4" width="12" height="12">
<path fill-rule="evenodd" clip-rule="evenodd" d="M14.2958 13.1433V8.7877V6.61592C14.2958 5.4818 13.3968 4.55981 12.2914 4.55981H5.92979C4.82441 4.55981 3.92578 5.4818 3.92578 6.61592V8.7877V13.1433C3.92578 14.2778 4.82441 15.1998 5.92979 15.1998H12.2918C13.3968 15.1998 14.2958 14.2778 14.2958 13.1433ZM10.9363 9.87925C10.9363 10.912 10.1163 11.7519 9.11045 11.7519C8.10423 11.7519 7.28492 10.9116 7.28603 9.87888C7.28639 9.4712 7.41529 9.09479 7.63123 8.78733C7.96358 8.3156 8.50231 8.00664 9.11156 8.00664C9.72043 8.00664 10.2595 8.31598 10.5911 8.78771C10.8063 9.09517 10.9363 9.47157 10.9363 9.87925ZM13.0961 7.58842V6.01874V5.78513L12.8673 5.78588L11.3381 5.79078L11.344 7.59445L13.0961 7.58842ZM9.1108 12.7892C10.6749 12.7892 11.947 11.4832 11.947 9.87926C11.947 9.49343 11.8709 9.12456 11.7362 8.78772H13.2848V13.1433C13.2848 13.7063 12.8386 14.1622 12.2911 14.1622H5.92944C5.38116 14.1622 4.9357 13.7063 4.9357 13.1433V8.78772H6.4836C6.34993 9.12456 6.27501 9.49343 6.27501 9.87926C6.27501 11.4832 7.54675 12.7892 9.1108 12.7892Z" fill="white"/>
</mask>
<g mask="url(#mask0)">
<rect x="0.222168" y="0.76001" width="17.7778" height="18.24" fill="#430307"/>
</g>
</svg>
