
<svg width="33" height="31" viewBox="0 0 37 33" fill="none" xmlns="http://www.w3.org/2000/svg">
<path fill-rule="evenodd" clip-rule="evenodd" d="M35.5076 21.2979L35.4704 21.2769C34.7014 20.658 33.7961 20.3643 32.7543 20.4063L32.7171 20.3433L32.7419 20.3328C33.6844 20.1545 34.2426 19.9657 34.4162 19.7559C34.4658 19.5881 34.4038 19.4937 34.1929 19.4727C33.7217 19.5251 33.2752 19.609 32.8907 19.7454C33.3868 19.4727 33.5728 19.2839 33.4612 19.1895C32.9775 19.1999 32.4442 19.4097 31.8985 19.8293C32.0969 19.5356 32.1838 19.3678 32.1341 19.3468C31.8613 19.4937 31.638 19.6615 31.4396 19.8398C31.0179 20.2384 30.6831 20.6056 30.4226 20.9412L30.4102 20.9622C29.7529 21.8748 29.2816 22.7874 29.0087 23.721L28.9095 23.7944L28.8847 23.8049C28.4878 23.3853 28.0041 23.0287 27.4336 22.7455C26.7639 22.3678 25.9701 22.0217 25.0524 21.6755C24.0602 21.2349 23.0432 20.8783 22.0262 20.5951C22.0138 21.5706 22.5843 22.3364 23.6881 22.9028V22.9133C23.3036 22.9133 22.9192 22.9657 22.5471 23.0601C22.6215 23.9623 23.378 24.5812 24.8043 24.9168L24.7919 24.9378C24.2338 24.9063 23.7749 25.0742 23.4153 25.4203C23.8865 26.1966 24.7175 26.5637 25.9205 26.5427C25.6849 26.6476 25.4989 26.7525 25.3748 26.8784C25.1516 27.0777 25.0772 27.3085 25.1516 27.5707C25.412 27.9693 25.8709 28.1476 26.5531 28.1162L26.5903 28.1581L26.5779 28.1791C25.3996 29.2071 23.9734 29.6686 22.3114 29.5742L22.2866 29.5847C21.2696 29.5742 20.1782 29.1651 19 28.3469C20.1782 29.784 21.7533 30.8225 23.7005 31.4834C25.9205 32.1023 28.153 32.1547 30.373 31.6197H30.4102C32.5682 31.0952 34.3914 30.0043 35.9045 28.3679C36.599 27.5183 37.0331 26.7001 37.2067 25.9133C38.3353 25.9448 39.1415 25.6721 39.65 25.0847L39.6376 25.0637C39.2531 25.1791 38.5214 25.1476 37.4424 24.9588V24.8539C38.633 24.7385 39.3399 24.4133 39.5632 23.8783C38.7322 24.1511 37.9137 24.1616 37.1075 23.8993C36.9587 22.9553 36.4254 22.0846 35.5076 21.2979Z" fill="#430307"/>
<mask id="mask0" mask-type="alpha" maskUnits="userSpaceOnUse" >
<path fill-rule="evenodd" clip-rule="evenodd" d="M35.5076 21.2979L35.4704 21.2769C34.7014 20.658 33.7961 20.3643 32.7543 20.4063L32.7171 20.3433L32.7419 20.3328C33.6844 20.1545 34.2426 19.9657 34.4162 19.7559C34.4658 19.5881 34.4038 19.4937 34.1929 19.4727C33.7217 19.5251 33.2752 19.609 32.8907 19.7454C33.3868 19.4727 33.5728 19.2839 33.4612 19.1895C32.9775 19.1999 32.4442 19.4097 31.8985 19.8293C32.0969 19.5356 32.1838 19.3678 32.1341 19.3468C31.8613 19.4937 31.638 19.6615 31.4396 19.8398C31.0179 20.2384 30.6831 20.6056 30.4226 20.9412L30.4102 20.9622C29.7529 21.8748 29.2816 22.7874 29.0087 23.721L28.9095 23.7944L28.8847 23.8049C28.4878 23.3853 28.0041 23.0287 27.4336 22.7455C26.7639 22.3678 25.9701 22.0217 25.0524 21.6755C24.0602 21.2349 23.0432 20.8783 22.0262 20.5951C22.0138 21.5706 22.5843 22.3364 23.6881 22.9028V22.9133C23.3036 22.9133 22.9192 22.9657 22.5471 23.0601C22.6215 23.9623 23.378 24.5812 24.8043 24.9168L24.7919 24.9378C24.2338 24.9063 23.7749 25.0742 23.4153 25.4203C23.8865 26.1966 24.7175 26.5637 25.9205 26.5427C25.6849 26.6476 25.4989 26.7525 25.3748 26.8784C25.1516 27.0777 25.0772 27.3085 25.1516 27.5707C25.412 27.9693 25.8709 28.1476 26.5531 28.1162L26.5903 28.1581L26.5779 28.1791C25.3996 29.2071 23.9734 29.6686 22.3114 29.5742L22.2866 29.5847C21.2696 29.5742 20.1782 29.1651 19 28.3469C20.1782 29.784 21.7533 30.8225 23.7005 31.4834C25.9205 32.1023 28.153 32.1547 30.373 31.6197H30.4102C32.5682 31.0952 34.3914 30.0043 35.9045 28.3679C36.599 27.5183 37.0331 26.7001 37.2067 25.9133C38.3353 25.9448 39.1415 25.6721 39.65 25.0847L39.6376 25.0637C39.2531 25.1791 38.5214 25.1476 37.4424 24.9588V24.8539C38.633 24.7385 39.3399 24.4133 39.5632 23.8783C38.7322 24.1511 37.9137 24.1616 37.1075 23.8993C36.9587 22.9553 36.4254 22.0846 35.5076 21.2979Z" fill="white"/>
</mask>
<g mask="url(#mask0)">
<rect width="17.7778" height="18.24" fill="#430307"/>
</g>
</svg>
