<svg width="57" height="53" viewBox="0 0 57 53" fill="none" xmlns="http://www.w3.org/2000/svg">
<path fill-rule="evenodd" clip-rule="evenodd" d="M34.9995 30.2941V24.563V21.7054C34.9995 20.2131 33.7859 19 32.2936 19H23.7054C22.2131 19 21 20.2131 21 21.7054V24.563V30.2941C21 31.7869 22.2131 33 23.7054 33H32.2941C33.7859 33 34.9995 31.7869 34.9995 30.2941ZM30.4642 25.9993C30.4642 27.3582 29.3572 28.4632 27.9993 28.4632C26.6409 28.4632 25.5348 27.3577 25.5363 25.9988C25.5368 25.4624 25.7108 24.9671 26.0023 24.5625C26.451 23.9418 27.1783 23.5353 28.0007 23.5353C28.8227 23.5353 29.5505 23.9423 29.9982 24.563C30.2887 24.9676 30.4642 25.4628 30.4642 25.9993ZM33.3798 22.985V20.9196V20.6122L33.071 20.6132L31.0066 20.6197L31.0145 22.9929L33.3798 22.985ZM27.9998 29.8281C30.1112 29.8281 31.8286 28.1097 31.8286 25.9992C31.8286 25.4916 31.7259 25.0062 31.544 24.563H33.6347V30.2941C33.6347 31.0348 33.0323 31.6346 32.2931 31.6346H23.7049C22.9647 31.6346 22.3634 31.0348 22.3634 30.2941V24.563H24.453C24.2726 25.0062 24.1714 25.4916 24.1714 25.9992C24.1714 28.1097 25.8883 29.8281 27.9998 29.8281Z" fill="#430307"/>
<mask id="mask0" mask-type="alpha" maskUnits="userSpaceOnUse" x="21" y="19" width="14" height="14">
<path fill-rule="evenodd" clip-rule="evenodd" d="M34.9995 30.2941V24.563V21.7054C34.9995 20.2131 33.7859 19 32.2936 19H23.7054C22.2131 19 21 20.2131 21 21.7054V24.563V30.2941C21 31.7869 22.2131 33 23.7054 33H32.2941C33.7859 33 34.9995 31.7869 34.9995 30.2941ZM30.4642 25.9993C30.4642 27.3582 29.3572 28.4632 27.9993 28.4632C26.6409 28.4632 25.5348 27.3577 25.5363 25.9988C25.5368 25.4624 25.7108 24.9671 26.0023 24.5625C26.451 23.9418 27.1783 23.5353 28.0007 23.5353C28.8227 23.5353 29.5505 23.9423 29.9982 24.563C30.2887 24.9676 30.4642 25.4628 30.4642 25.9993ZM33.3798 22.985V20.9196V20.6122L33.071 20.6132L31.0066 20.6197L31.0145 22.9929L33.3798 22.985ZM27.9998 29.8281C30.1112 29.8281 31.8286 28.1097 31.8286 25.9992C31.8286 25.4916 31.7259 25.0062 31.544 24.563H33.6347V30.2941C33.6347 31.0348 33.0323 31.6346 32.2931 31.6346H23.7049C22.9647 31.6346 22.3634 31.0348 22.3634 30.2941V24.563H24.453C24.2726 25.0062 24.1714 25.4916 24.1714 25.9992C24.1714 28.1097 25.8883 29.8281 27.9998 29.8281Z" fill="white"/>
</mask>
<g mask="url(#mask0)">
<rect x="16" y="14" width="24" height="24" fill="#430307"/>
</g>
</svg>
