<svg width="51" height="50" viewBox="0 0 51 50" fill="none" xmlns="http://www.w3.org/2000/svg">
<g id="icon/action/favorite_border_24px">
<path id="icon/action/favorite_border_24px_2" fill-rule="evenodd" clip-rule="evenodd" d="M25.889 10.2394C28.1598 7.57275 31.639 5.88525 35.264 5.88525C41.6807 5.88525 46.7223 10.9269 46.7223 17.3436C46.7223 25.2121 39.6506 31.6247 28.9362 41.3405L28.9098 41.3644L25.889 44.1144L22.8682 41.3853L22.7859 41.3105C12.1028 31.6024 5.05566 25.1984 5.05566 17.3436C5.05566 10.9269 10.0973 5.88525 16.514 5.88525C20.139 5.88525 23.6182 7.57275 25.889 10.2394ZM25.8892 38.4893L26.0975 38.281C36.0142 29.3018 42.5558 23.3643 42.5558 17.3435C42.5558 13.1768 39.4308 10.0518 35.2642 10.0518C32.0558 10.0518 28.9308 12.1143 27.8475 14.9685H23.9517C22.8475 12.1143 19.7225 10.0518 16.5142 10.0518C12.3475 10.0518 9.22249 13.1768 9.22249 17.3435C9.22249 23.3643 15.7642 29.3018 25.6808 38.281L25.8892 38.4893Z" fill="#B76882"/>
</g>
</svg>
